<svg xmlns="http://www.w3.org/2000/svg" xmlns:xlink="http://www.w3.org/1999/xlink" width="500" zoomAndPan="magnify" viewBox="0 0 375 374.999991" height="500" preserveAspectRatio="xMidYMid meet" version="1.0"><defs><clipPath id="14c1d22708"><path d="M 67.347656 20 L 307.347656 20 L 307.347656 356 L 67.347656 356 Z M 67.347656 20 " clip-rule="nonzero"/></clipPath></defs><g clip-path="url(#14c1d22708)"><path fill="#15253d" d="M 91.996094 136.707031 C 92.59375 133.425781 93.484375 130.007812 94.648438 126.523438 C 89.382812 120.480469 85.742188 113.707031 84.15625 107.066406 C 82.273438 109.375 80.398438 111.6875 78.53125 114 C 81.167969 117.746094 83.585938 121.691406 85.921875 125.507812 C 86.714844 126.800781 87.507812 128.09375 88.304688 129.378906 C 88.6875 129.988281 89.671875 131.980469 91.242188 135.183594 C 91.480469 135.664062 91.738281 136.183594 91.996094 136.707031 Z M 97.125 120.03125 C 98.441406 116.914062 99.980469 113.722656 101.785156 110.363281 C 101.082031 108.449219 100.335938 106.527344 99.585938 104.59375 C 98.152344 100.914062 96.683594 97.136719 95.5 93.328125 C 93.234375 96.019531 90.914062 98.820312 88.558594 101.679688 C 91.058594 108.503906 93.820312 114.421875 97.125 120.03125 Z M 106.796875 101.75 C 107.410156 100.765625 108.046875 99.761719 108.722656 98.726562 C 107.660156 94.589844 106.363281 90.589844 105.332031 87.523438 C 105.046875 86.660156 104.730469 85.804688 104.417969 84.945312 C 104.242188 84.472656 104.070312 83.988281 103.894531 83.503906 C 103.101562 84.414062 102.308594 85.328125 101.523438 86.242188 C 104.0625 91.089844 105.609375 96.683594 106.796875 101.75 Z M 114.085938 90.824219 C 115.097656 89.398438 116.175781 87.902344 117.367188 86.273438 C 116.546875 82.582031 115.628906 79.007812 114.632812 75.644531 C 114.429688 74.953125 114.210938 74.265625 113.988281 73.578125 C 113.882812 73.246094 113.777344 72.910156 113.671875 72.570312 C 112.269531 74.097656 110.875 75.632812 109.492188 77.175781 C 111.71875 81.148438 113.070312 85.953125 114.085938 90.824219 Z M 123.585938 77.949219 C 123.484375 77.683594 123.417969 77.410156 123.382812 77.125 C 123.027344 74.066406 122.628906 70.789062 122.128906 67.507812 C 121.945312 66.335938 121.769531 65.179688 121.738281 63.996094 C 121.027344 64.738281 120.324219 65.488281 119.617188 66.230469 C 121.636719 69.863281 122.554688 74.238281 123.214844 78.441406 C 123.339844 78.277344 123.460938 78.109375 123.585938 77.949219 Z M 138.582031 59.078125 C 138.390625 58.710938 138.269531 58.3125 138.222656 57.886719 L 138.128906 57.066406 C 137.914062 55.171875 137.691406 53.210938 137.691406 51.226562 C 137.691406 50.625 137.714844 50.019531 137.757812 49.417969 C 137.785156 49.070312 137.84375 48.746094 137.933594 48.441406 C 134.289062 51.574219 130.804688 54.871094 127.453125 58.191406 C 127.699219 58.386719 127.914062 58.625 128.09375 58.902344 C 129.53125 61.101562 129.753906 63.777344 129.953125 66.136719 C 130.003906 66.730469 130.050781 67.3125 130.121094 67.878906 C 130.175781 68.339844 130.230469 68.808594 130.28125 69.277344 C 130.671875 68.785156 131.066406 68.292969 131.453125 67.796875 C 131.445312 67.242188 131.4375 66.691406 131.4375 66.136719 C 131.4375 64.292969 131.515625 62.121094 132.058594 60 C 132.335938 58.917969 133.328125 58.15625 134.472656 58.160156 C 135.558594 58.160156 136.46875 58.871094 136.738281 59.921875 C 136.828125 60.269531 136.90625 60.628906 136.980469 60.996094 C 137.507812 60.355469 138.042969 59.71875 138.582031 59.078125 Z M 151.308594 330.867188 C 151.523438 327.660156 151.769531 324.21875 152.0625 320.394531 C 145.882812 312.4375 141.152344 300.835938 138.941406 288.449219 C 138.859375 289.683594 138.746094 290.957031 138.625 292.277344 C 138.390625 294.8125 138.148438 297.4375 138.148438 299.957031 C 138.148438 303.925781 138.746094 306.855469 140.039062 309.1875 C 144.171875 316.65625 147.949219 323.925781 151.308594 330.867188 Z M 155.570312 278.242188 C 155.886719 274.394531 156.222656 270.105469 156.539062 265.746094 L 156.5 265.671875 C 155.144531 263.195312 153.738281 260.746094 152.332031 258.300781 C 150.488281 255.085938 148.585938 251.761719 146.820312 248.417969 C 144.429688 243.878906 142.101562 239.109375 140.339844 234.066406 C 140.179688 242.078125 140.019531 249.378906 139.84375 256.441406 L 139.6875 263.011719 C 139.554688 268.476562 139.414062 274.078125 139.257812 279.664062 C 139.816406 279.183594 140.554688 278.878906 141.390625 278.824219 C 143.453125 278.683594 145.214844 280.101562 145.488281 282.117188 C 146.527344 289.789062 149.117188 297.539062 153.195312 305.152344 C 153.222656 305.203125 153.246094 305.253906 153.277344 305.304688 C 153.535156 302.246094 153.792969 299.1875 154.058594 296.128906 C 152.320312 292.390625 150.777344 288.429688 149.417969 284.921875 C 148.839844 283.4375 148.28125 282 147.734375 280.648438 C 143.675781 270.585938 141.867188 261.894531 141.867188 252.472656 L 141.875 251.410156 C 141.898438 249.8125 143.121094 248.574219 144.71875 248.527344 C 146.273438 248.484375 147.53125 249.632812 147.640625 251.195312 C 148.304688 260.722656 151.898438 270.105469 155.570312 278.242188 Z M 157.625 248.335938 C 157.71875 246.421875 157.804688 244.511719 157.886719 242.597656 L 157.976562 240.566406 C 154.695312 235.445312 152.121094 229.816406 149.636719 224.359375 C 149.039062 223.058594 148.453125 221.773438 147.863281 220.515625 C 145.492188 215.441406 143.183594 210.125 140.863281 204.410156 C 140.832031 206.085938 140.742188 211.402344 140.742188 211.402344 C 140.914062 211.421875 141.082031 211.449219 141.25 211.492188 C 142.539062 211.824219 143.371094 212.929688 143.371094 214.3125 L 143.371094 214.546875 C 143.371094 226.378906 150.125 237.785156 156.085938 247.847656 L 157.523438 250.28125 C 157.558594 249.632812 157.59375 248.984375 157.625 248.335938 Z M 158.097656 158.933594 C 158.269531 157.03125 158.398438 154.96875 158.398438 152.925781 C 158.398438 150.117188 158.167969 147.679688 157.691406 145.519531 C 154.558594 145.804688 151.40625 145.875 148.40625 145.84375 C 149.246094 146.8125 150.121094 147.816406 150.875 148.933594 L 151.105469 149.273438 C 153.046875 152.152344 155.054688 155.125 157.242188 157.867188 C 157.527344 158.226562 157.8125 158.582031 158.097656 158.933594 Z M 158.761719 220.351562 L 158.175781 219.101562 C 157.382812 217.382812 156.554688 215.605469 155.652344 213.976562 C 153.964844 210.933594 152.183594 207.871094 150.460938 204.90625 C 149.253906 202.828125 148.039062 200.75 146.847656 198.65625 C 149.464844 204.792969 152.296875 210.90625 155.316406 216.949219 C 156.347656 219.007812 157.492188 221.09375 158.664062 223.15625 C 158.695312 222.21875 158.730469 221.285156 158.761719 220.351562 Z M 159.328125 199.449219 C 157.617188 196.417969 156.105469 193.179688 154.648438 190.039062 C 153.234375 186.992188 151.898438 184.113281 150.390625 181.421875 C 147.367188 176.015625 144.265625 170.472656 141.339844 164.769531 L 141.335938 165.601562 C 143.660156 176.21875 149.632812 185.910156 155.410156 195.285156 C 156.398438 196.894531 157.386719 198.5 158.347656 200.09375 C 158.644531 200.589844 158.960938 201.097656 159.28125 201.613281 C 159.296875 200.890625 159.316406 200.171875 159.328125 199.449219 Z M 145.910156 50.644531 C 152.3125 43.554688 158.519531 37.433594 164.710938 32.109375 C 162.320312 32.628906 159.683594 33.660156 156.820312 35.195312 C 151.375 38.113281 146.296875 41.628906 141.511719 45.472656 C 141.667969 45.453125 141.824219 45.445312 141.976562 45.445312 C 144.085938 45.445312 145.675781 46.980469 145.84375 49.175781 C 145.882812 49.664062 145.902344 50.15625 145.910156 50.644531 Z M 258.925781 122.175781 C 265.910156 121.066406 272.914062 121.109375 280.394531 121.492188 C 257.949219 105.402344 236.730469 87.21875 216.171875 69.59375 C 203.507812 58.738281 190.425781 47.519531 177.191406 36.917969 C 159.503906 50.773438 144.570312 69.371094 133.488281 84.105469 L 133.21875 84.464844 C 122.207031 99.101562 109.78125 115.621094 104.667969 133.363281 C 110.269531 133.519531 115.910156 133.78125 121.386719 134.03125 C 124.476562 134.171875 127.5625 134.316406 130.648438 134.441406 C 133.886719 134.570312 137.253906 134.597656 140.511719 134.617188 C 147.589844 134.667969 154.914062 134.722656 161.910156 135.84375 C 163.964844 136.167969 165.703125 138.15625 165.703125 140.183594 C 165.703125 140.214844 165.699219 140.34375 165.699219 140.375 C 165.621094 141.882812 165.585938 143.519531 165.585938 145.53125 C 165.585938 145.988281 165.585938 146.4375 165.589844 146.890625 C 166.6875 146.925781 167.777344 147.261719 168.679688 147.867188 C 169.992188 148.75 170.792969 150.101562 170.953125 151.699219 C 170.984375 151.824219 171 151.949219 171 152.082031 C 170.964844 169.136719 170.738281 185.773438 170.328125 201.53125 C 170.492188 202.40625 170.59375 203.132812 170.648438 203.804688 C 170.652344 203.847656 170.660156 204.023438 170.660156 204.070312 C 170.660156 204.648438 170.503906 205.21875 170.207031 205.75 C 170.050781 211.304688 169.839844 216.859375 169.628906 222.40625 C 169.929688 223.882812 170.085938 225.3125 170.085938 226.664062 C 170.085938 227.164062 170.066406 227.660156 170.023438 228.15625 C 169.976562 228.738281 169.742188 229.28125 169.359375 229.726562 C 169.175781 234.113281 168.96875 238.496094 168.75 242.882812 C 169.1875 244.082031 169.527344 245.101562 169.804688 246.066406 C 169.882812 246.339844 169.921875 246.613281 169.921875 246.894531 C 169.921875 247.707031 169.574219 248.503906 168.976562 249.082031 C 168.800781 249.253906 168.609375 249.398438 168.40625 249.519531 L 167.449219 266.976562 C 170.425781 272.886719 171.816406 277.738281 171.816406 282.210938 C 171.808594 283.914062 170.789062 285.257812 169.28125 285.695312 C 168.230469 286.003906 167.167969 285.789062 166.351562 285.160156 C 166.046875 289.699219 165.730469 293.980469 165.390625 298.132812 C 166.457031 301.007812 167.042969 303.5625 167.175781 305.929688 C 167.175781 305.960938 167.179688 306.066406 167.179688 306.097656 C 167.179688 307.382812 166.339844 308.585938 165.078125 309.09375 C 164.847656 309.183594 164.617188 309.253906 164.382812 309.289062 C 163.203125 321.109375 161.777344 331.644531 160.039062 341.347656 C 160.300781 341.160156 160.582031 341 160.894531 340.871094 C 162.042969 340.390625 163.371094 340.410156 164.449219 340.902344 C 164.554688 340.902344 164.671875 340.90625 164.808594 340.90625 C 165.984375 340.917969 167.15625 340.929688 168.328125 340.902344 C 170.320312 340.859375 172.308594 340.824219 174.296875 340.789062 L 179.265625 340.699219 C 187.578125 340.527344 196.027344 340.199219 204.203125 339.882812 L 208.679688 339.710938 C 215.03125 339.46875 221.382812 339.175781 227.734375 338.882812 C 238.320312 338.394531 249.246094 337.886719 260.042969 337.632812 C 259.636719 332.660156 259.253906 327.683594 258.871094 322.710938 C 257.867188 309.664062 256.828125 296.175781 255.414062 282.9375 C 255.019531 279.261719 254.621094 275.585938 254.21875 271.914062 C 252.445312 255.671875 250.613281 238.878906 249.585938 222.28125 C 248.792969 209.484375 248.6875 196.691406 248.6875 185.863281 C 248.6875 181.917969 248.703125 177.964844 248.71875 174.015625 C 248.734375 170.074219 248.75 166.132812 248.75 162.195312 L 248.75 159.734375 C 248.742188 155.65625 248.667969 151.5625 248.597656 147.457031 C 248.519531 143.191406 248.441406 138.78125 248.441406 134.441406 C 248.441406 131.191406 248.484375 128.28125 248.574219 125.546875 C 248.574219 123.84375 249.199219 122.390625 250.335938 121.382812 C 251.550781 120.304688 253.289062 119.777344 254.992188 119.976562 C 256.65625 120.074219 258.082031 120.886719 258.925781 122.175781 Z M 307.324219 128.976562 C 307.324219 130.605469 306.75 132.074219 305.707031 133.109375 C 304.683594 134.121094 303.289062 134.648438 301.675781 134.628906 C 297.050781 134.582031 292.277344 134.226562 287.660156 133.878906 C 278.433594 133.191406 268.910156 132.480469 259.960938 134.164062 C 259.996094 136.949219 260.015625 139.726562 260.015625 142.515625 C 260.015625 150.996094 259.859375 159.621094 259.707031 167.960938 C 259.554688 176.285156 259.398438 184.898438 259.398438 193.355469 C 259.398438 204.199219 259.652344 213.214844 260.191406 221.71875 C 261.066406 235.453125 262.652344 249.574219 264.191406 263.226562 C 266.542969 284.148438 268.980469 305.78125 268.980469 327.007812 C 268.980469 333.617188 268.738281 340.027344 268.265625 346.058594 C 268.121094 347.921875 266.8125 349.371094 265.007812 349.664062 C 263.75 349.867188 262.554688 349.445312 261.753906 348.574219 C 250.375 348.667969 238.8125 349.0625 227.625 349.441406 C 218.273438 349.761719 208.601562 350.089844 199.082031 350.246094 C 198.710938 350.25 197.933594 350.289062 196.839844 350.34375 C 174.503906 351.445312 163.019531 350.488281 159.605469 347.234375 C 159.144531 346.792969 158.847656 346.339844 158.664062 345.910156 C 158.554688 346.042969 158.4375 346.167969 158.3125 346.285156 C 158.933594 347.757812 159.542969 349.230469 160.128906 350.695312 C 160.292969 351.109375 160.378906 351.539062 160.378906 351.976562 C 160.378906 353.460938 159.378906 354.855469 157.894531 355.453125 C 156.492188 356.019531 155 355.71875 154 354.675781 C 147.261719 347.640625 143.035156 338.53125 138.945312 329.71875 C 136.234375 323.867188 133.425781 317.8125 129.945312 312.578125 C 128.019531 309.683594 127.121094 305.921875 127.121094 300.746094 C 127.121094 298.054688 127.355469 295.34375 127.578125 292.722656 C 127.761719 290.636719 127.929688 288.671875 127.964844 286.894531 C 128.082031 281.144531 128.230469 275.394531 128.386719 269.644531 C 128.476562 266.355469 128.5625 263.066406 128.640625 259.777344 C 129.414062 228.421875 130.292969 187.046875 130.308594 145.070312 C 129.480469 145.035156 128.65625 145 127.839844 144.980469 C 117.675781 144.695312 107.496094 144.707031 97.652344 144.71875 C 96.851562 144.71875 96.082031 144.574219 95.371094 144.292969 C 95.253906 144.609375 95.066406 144.890625 94.824219 145.136719 C 94.082031 145.878906 93.125 146.207031 92.050781 146.085938 C 87.488281 145.574219 80.679688 136.15625 71.175781 121.136719 C 69.84375 119.03125 68.695312 117.210938 68.246094 116.640625 C 67.65625 115.886719 67.351562 114.960938 67.351562 113.96875 C 67.351562 112.792969 67.78125 111.566406 68.542969 110.605469 C 71.238281 107.179688 73.914062 103.742188 76.589844 100.304688 C 91.328125 81.367188 106.574219 61.789062 124.753906 45.019531 C 134.390625 36.125 146.386719 25.058594 160.296875 21.335938 C 168.0625 19.261719 180.796875 20.492188 184.882812 28.101562 C 197.976562 38.570312 210.933594 49.660156 223.464844 60.382812 C 249.039062 82.261719 275.480469 104.890625 304.316406 123.296875 C 306.171875 124.480469 307.324219 126.65625 307.324219 128.976562 " fill-opacity="1" fill-rule="nonzero"/></g></svg>