<svg xmlns="http://www.w3.org/2000/svg" xmlns:xlink="http://www.w3.org/1999/xlink" width="500" zoomAndPan="magnify" viewBox="0 0 375 374.999991" height="500" preserveAspectRatio="xMidYMid meet" version="1.0"><defs><clipPath id="10f80ecabb"><path d="M 211 86 L 357.851562 86 L 357.851562 316 L 211 316 Z M 211 86 " clip-rule="nonzero"/></clipPath></defs><path fill="#15253d" d="M 134.835938 96.671875 C 155.765625 112.023438 165.457031 132.609375 165.742188 157.953125 C 165.796875 162.671875 166.359375 167.386719 166.765625 172.101562 C 168.929688 197.070312 163.207031 220.777344 155 244.027344 C 144.34375 274.210938 124.390625 297.355469 99.023438 316.164062 C 97.273438 317.460938 94.007812 316.832031 91.445312 316.878906 C 90.753906 316.894531 90.007812 316.15625 89.34375 315.683594 C 79.269531 308.589844 79.320312 308.453125 88.890625 300.796875 C 115.914062 279.175781 134.300781 251.804688 143.566406 218.4375 C 143.851562 217.402344 143.753906 216.257812 143.84375 215.164062 C 142.785156 215.757812 141.539062 216.171875 140.699219 216.988281 C 127.632812 229.675781 112.257812 237.359375 93.816406 237.425781 C 68.398438 237.523438 49.125 225.375 35.636719 204.863281 C 17.566406 177.382812 20.800781 138.589844 41.742188 112.6875 C 52.703125 99.125 66.15625 89.578125 83.414062 86.054688 C 88.644531 84.984375 94.121094 85.152344 99.449219 84.464844 C 113.167969 82.679688 123.863281 89.507812 134.835938 96.671875 Z M 36.894531 177.53125 C 37.953125 183.292969 38.355469 189.273438 40.191406 194.773438 C 45.28125 209.988281 53.699219 222.324219 70.671875 226.320312 C 78.796875 228.234375 86.847656 228.121094 94.867188 225.910156 C 97.511719 225.179688 100.09375 224.21875 102.703125 223.367188 C 100.140625 222.839844 97.578125 222.3125 95.007812 221.789062 C 94.210938 221.628906 93.402344 221.507812 92.617188 221.304688 C 67.457031 214.6875 49.625 199.378906 38.617188 175.96875 C 38.246094 175.179688 37.582031 174.53125 37.058594 173.820312 C 36.996094 174.78125 36.9375 175.753906 36.894531 177.53125 Z M 130.382812 116.296875 C 134.976562 121.148438 139.648438 125.929688 144.140625 130.871094 C 146.554688 133.523438 148.648438 136.460938 150.894531 139.273438 C 150.207031 135.445312 149.976562 131.46875 148.75 127.824219 C 144.15625 114.207031 137.824219 101.90625 122.867188 96.808594 C 119.191406 95.554688 115.695312 93.519531 111.933594 92.835938 C 108.878906 92.277344 105.550781 93.195312 102.34375 93.453125 C 103.554688 97.03125 100.832031 95.96875 99.128906 96.203125 C 96.800781 96.523438 94.472656 96.921875 92.148438 97.292969 C 94.203125 97.773438 96.257812 98.261719 98.316406 98.726562 C 110.449219 101.460938 120.371094 108.25 130.382812 116.296875 Z M 137.066406 159.726562 C 135.234375 154.902344 133.628906 149.980469 131.480469 145.300781 C 130.472656 143.109375 128.402344 141.402344 126.816406 139.476562 C 127.375 142.269531 127.496094 145.25 128.585938 147.828125 C 130.59375 152.582031 133.167969 157.105469 135.5 161.726562 C 135.988281 162.695312 136.449219 163.679688 136.921875 164.660156 C 137.027344 163.601562 137.132812 162.539062 137.214844 161.476562 C 137.234375 161.160156 137.175781 160.832031 137.066406 159.726562 Z M 89.316406 205.253906 C 84.511719 202.273438 79.710938 199.261719 74.871094 196.328125 C 74.304688 195.980469 73.496094 196.023438 72.796875 195.886719 C 72.90625 196.320312 72.949219 196.785156 73.128906 197.1875 C 75.570312 202.441406 84.640625 207.59375 90.496094 207.027344 C 90.910156 206.984375 91.289062 206.566406 91.683594 206.324219 C 91.09375 206.074219 90.503906 205.816406 89.316406 205.253906 Z M 119.140625 114.761719 C 114.910156 113.167969 110.679688 111.558594 106.429688 110 C 106.023438 109.851562 105.472656 110.089844 104.992188 110.152344 C 105.265625 110.414062 105.496094 110.757812 105.8125 110.933594 C 112.332031 114.621094 118.855469 118.300781 125.402344 121.933594 C 125.84375 122.175781 126.511719 122.019531 127.074219 122.054688 C 126.890625 121.621094 126.832031 121.046875 126.511719 120.769531 C 124.289062 118.855469 122.019531 116.988281 119.140625 114.761719 Z M 144.792969 213.539062 L 144.570312 213.410156 C 144.570312 213.410156 144.609375 213.714844 144.792969 213.539062 Z M 144.792969 213.539062 " fill-opacity="1" fill-rule="nonzero"/><g clip-path="url(#10f80ecabb)"><path fill="#15253d" d="M 322.488281 257.507812 C 306.371094 280.617188 286.972656 299.742188 262.84375 313.933594 C 259.417969 315.949219 256.605469 316.425781 253.46875 313.882812 C 252.714844 313.277344 251.78125 312.898438 250.960938 312.363281 C 242.164062 306.601562 242.210938 305.335938 250.792969 300.007812 C 280.851562 281.339844 303.125 255.421875 320.515625 225.015625 C 321.011719 224.152344 321.042969 223.019531 321.292969 222.019531 C 320.398438 222.34375 319.445312 222.546875 318.632812 223 C 278.695312 245.171875 236.328125 222.109375 219.226562 191.667969 C 205.921875 167.984375 210.28125 135.058594 229.121094 113.980469 C 239.140625 102.765625 251.414062 95.480469 265.851562 91.632812 C 267.835938 91.105469 270.265625 91.335938 270.046875 88.0625 C 270.011719 87.582031 271.632812 86.609375 272.5625 86.511719 C 289.988281 84.714844 306.316406 87.722656 321.300781 97.265625 C 340.972656 109.792969 354.148438 126.640625 356.796875 150.296875 C 357.515625 156.695312 357.691406 163.558594 356.167969 169.734375 C 351.566406 188.375 349.246094 207.75 340.613281 225.191406 C 335.183594 236.128906 328.695312 246.550781 322.488281 257.507812 Z M 271.59375 219.828125 C 277.40625 219.132812 283.230469 218.484375 289.039062 217.691406 C 290.109375 217.542969 291.097656 216.804688 292.128906 216.347656 C 291.003906 215.894531 289.921875 215.203125 288.753906 215.027344 C 263.566406 211.21875 243.816406 199.03125 230.117188 177.410156 C 229.480469 176.402344 228.613281 175.53125 227.863281 174.597656 C 227.863281 175.734375 227.6875 176.902344 227.882812 178 C 232.398438 202.753906 244.550781 218.273438 271.59375 219.828125 Z M 320.296875 118.164062 C 328.609375 127.828125 334.496094 138.886719 339.140625 150.675781 C 339.5625 151.746094 340.410156 152.644531 341.058594 153.617188 C 341.328125 152.421875 341.769531 151.230469 341.839844 150.027344 C 342.3125 141.226562 340.734375 132.738281 337.222656 124.699219 C 329.265625 106.492188 317.480469 99.335938 300.046875 98.199219 C 298.949219 98.125 297.835938 98.363281 296.730469 98.457031 C 297.546875 99.132812 298.363281 99.804688 299.179688 100.480469 C 306.050781 106.207031 312.9375 111.929688 320.296875 118.164062 Z M 281.0625 187.203125 C 273.125 182.988281 263.242188 182.691406 256.90625 175.253906 C 256.714844 175.03125 256.160156 174.773438 256.070312 174.855469 C 255.699219 175.210938 255.101562 175.753906 255.175781 176.097656 C 257.277344 185.472656 272.386719 191.992188 281.0625 187.203125 Z M 290.5625 107.992188 C 289.636719 108.101562 288.714844 108.203125 287.785156 108.3125 C 288.191406 108.738281 288.539062 109.238281 289.011719 109.574219 C 294.921875 113.78125 300.847656 117.96875 306.777344 122.148438 C 307.183594 122.4375 307.671875 122.613281 308.117188 122.84375 C 308.132812 122.371094 308.363281 121.703125 308.132812 121.453125 C 303.230469 116.101562 300.078125 108.546875 290.5625 107.992188 Z M 258.085938 193.972656 C 254.871094 190.769531 251.691406 187.535156 248.433594 184.382812 C 247.476562 183.464844 246.292969 182.773438 245.207031 181.980469 C 245.734375 183.261719 245.972656 184.800781 246.839844 185.777344 C 250.066406 189.359375 253.3125 192.984375 256.953125 196.125 C 258.648438 197.585938 261.269531 197.964844 263.472656 198.835938 C 261.859375 197.367188 260.238281 195.894531 258.085938 193.972656 Z M 258.085938 193.972656 " fill-opacity="1" fill-rule="nonzero"/></g></svg>