<svg xmlns="http://www.w3.org/2000/svg" xmlns:xlink="http://www.w3.org/1999/xlink" width="500" zoomAndPan="magnify" viewBox="0 0 375 374.999991" height="500" preserveAspectRatio="xMidYMid meet" version="1.0"><defs><clipPath id="90305b054d"><path d="M 54.417969 54.417969 L 320.667969 54.417969 L 320.667969 320.667969 L 54.417969 320.667969 Z M 54.417969 54.417969 " clip-rule="nonzero"/></clipPath><clipPath id="c04c2f6a19"><path d="M 96 54.417969 L 112 54.417969 L 112 82 L 96 82 Z M 96 54.417969 " clip-rule="nonzero"/></clipPath><clipPath id="3a321c51d6"><path d="M 179 54.417969 L 196 54.417969 L 196 82 L 179 82 Z M 179 54.417969 " clip-rule="nonzero"/></clipPath><clipPath id="998da376f8"><path d="M 263 54.417969 L 279 54.417969 L 279 82 L 263 82 Z M 263 54.417969 " clip-rule="nonzero"/></clipPath></defs><g clip-path="url(#90305b054d)"><path fill="#000000" d="M 107.398438 54.414062 L 107.398438 58.597656 L 184.023438 58.597656 L 184.023438 54.414062 Z M 274.742188 54.414062 L 274.742188 58.597656 L 316.496094 58.597656 L 316.496094 316.492188 L 58.601562 316.492188 L 58.601562 58.597656 L 100.355469 58.597656 L 100.355469 54.414062 L 54.417969 54.414062 L 54.417969 320.675781 L 320.679688 320.675781 L 320.679688 54.414062 Z M 191.070312 54.414062 L 191.070312 58.597656 L 267.699219 58.597656 L 267.699219 54.414062 L 191.070312 54.414062 " fill-opacity="1" fill-rule="nonzero"/></g><path fill="#000000" d="M 318.585938 123.710938 L 56.507812 123.710938 L 56.507812 119.527344 L 318.585938 119.527344 L 318.585938 123.710938 " fill-opacity="1" fill-rule="nonzero"/><path fill="#000000" d="M 111.585938 76.117188 C 110.300781 75.339844 108.894531 74.753906 107.398438 74.394531 L 107.398438 78.75 C 109 79.304688 110.425781 80.230469 111.585938 81.421875 C 113.472656 83.359375 114.632812 86.003906 114.632812 88.910156 C 114.632812 94.84375 109.808594 99.667969 103.878906 99.667969 C 97.949219 99.667969 93.125 94.84375 93.125 88.910156 C 93.125 86.003906 94.28125 83.359375 96.171875 81.421875 C 97.324219 80.230469 98.753906 79.304688 100.355469 78.75 L 100.355469 74.394531 C 98.859375 74.753906 97.453125 75.339844 96.171875 76.117188 C 91.839844 78.734375 88.9375 83.492188 88.9375 88.910156 C 88.9375 97.152344 95.636719 103.851562 103.878906 103.851562 C 112.113281 103.851562 118.816406 97.152344 118.816406 88.910156 C 118.816406 83.492188 115.914062 78.734375 111.585938 76.117188 " fill-opacity="1" fill-rule="nonzero"/><path fill="#000000" d="M 195.253906 76.117188 C 193.972656 75.339844 192.566406 74.753906 191.070312 74.394531 L 191.070312 78.75 C 192.671875 79.304688 194.101562 80.230469 195.253906 81.421875 C 197.140625 83.359375 198.304688 86.003906 198.304688 88.910156 C 198.304688 94.84375 193.476562 99.667969 187.546875 99.667969 C 181.617188 99.667969 176.792969 94.84375 176.792969 88.910156 C 176.792969 86.003906 177.953125 83.359375 179.84375 81.421875 C 180.996094 80.230469 182.425781 79.304688 184.023438 78.75 L 184.023438 74.394531 C 182.53125 74.753906 181.125 75.339844 179.84375 76.117188 C 175.511719 78.734375 172.609375 83.492188 172.609375 88.910156 C 172.609375 97.152344 179.308594 103.851562 187.546875 103.851562 C 195.789062 103.851562 202.484375 97.152344 202.484375 88.910156 C 202.484375 83.492188 199.585938 78.734375 195.253906 76.117188 " fill-opacity="1" fill-rule="nonzero"/><path fill="#000000" d="M 278.925781 76.117188 C 277.640625 75.339844 276.234375 74.753906 274.742188 74.394531 L 274.742188 78.75 C 276.34375 79.304688 277.769531 80.230469 278.925781 81.421875 C 280.816406 83.359375 281.972656 86.003906 281.972656 88.910156 C 281.972656 94.84375 277.148438 99.667969 271.21875 99.667969 C 265.289062 99.667969 260.464844 94.84375 260.464844 88.910156 C 260.464844 86.003906 261.625 83.359375 263.511719 81.421875 C 264.667969 80.230469 266.097656 79.304688 267.699219 78.75 L 267.699219 74.394531 C 266.203125 74.753906 264.796875 75.339844 263.511719 76.117188 C 259.183594 78.734375 256.28125 83.492188 256.28125 88.910156 C 256.28125 97.152344 262.980469 103.851562 271.21875 103.851562 C 279.457031 103.851562 286.160156 97.152344 286.160156 88.910156 C 286.160156 83.492188 283.257812 78.734375 278.925781 76.117188 " fill-opacity="1" fill-rule="nonzero"/><path fill="#000000" d="M 174.171875 182.816406 L 147.933594 182.816406 L 147.933594 156.574219 L 174.171875 156.574219 Z M 143.75 152.390625 L 143.75 187 L 178.355469 187 L 178.355469 152.390625 L 143.75 152.390625 " fill-opacity="1" fill-rule="nonzero"/><path fill="#000000" d="M 227.164062 182.816406 L 200.925781 182.816406 L 200.925781 156.574219 L 227.164062 156.574219 Z M 196.742188 152.390625 L 196.742188 187 L 231.347656 187 L 231.347656 152.390625 L 196.742188 152.390625 " fill-opacity="1" fill-rule="nonzero"/><path fill="#000000" d="M 280.15625 182.816406 L 253.917969 182.816406 L 253.917969 156.574219 L 280.15625 156.574219 Z M 249.730469 152.390625 L 249.730469 187 L 284.339844 187 L 284.339844 152.390625 L 249.730469 152.390625 " fill-opacity="1" fill-rule="nonzero"/><path fill="#000000" d="M 121.179688 233.015625 L 94.941406 233.015625 L 94.941406 206.78125 L 121.179688 206.78125 Z M 90.757812 202.59375 L 90.757812 237.203125 L 125.363281 237.203125 L 125.363281 202.59375 L 90.757812 202.59375 " fill-opacity="1" fill-rule="nonzero"/><path fill="#000000" d="M 174.171875 233.015625 L 147.933594 233.015625 L 147.933594 206.78125 L 174.171875 206.78125 Z M 143.75 202.59375 L 143.75 237.203125 L 178.355469 237.203125 L 178.355469 202.59375 L 143.75 202.59375 " fill-opacity="1" fill-rule="nonzero"/><path fill="#000000" d="M 227.164062 233.015625 L 200.925781 233.015625 L 200.925781 206.78125 L 227.164062 206.78125 Z M 196.742188 202.59375 L 196.742188 237.203125 L 231.347656 237.203125 L 231.347656 202.59375 L 196.742188 202.59375 " fill-opacity="1" fill-rule="nonzero"/><path fill="#000000" d="M 280.15625 233.015625 L 253.917969 233.015625 L 253.917969 206.78125 L 280.15625 206.78125 Z M 249.730469 202.59375 L 249.730469 237.203125 L 284.339844 237.203125 L 284.339844 202.59375 L 249.730469 202.59375 " fill-opacity="1" fill-rule="nonzero"/><path fill="#000000" d="M 121.179688 283.222656 L 94.941406 283.222656 L 94.941406 256.980469 L 121.179688 256.980469 Z M 90.757812 252.800781 L 90.757812 287.40625 L 125.363281 287.40625 L 125.363281 252.800781 L 90.757812 252.800781 " fill-opacity="1" fill-rule="nonzero"/><path fill="#000000" d="M 174.171875 283.222656 L 147.933594 283.222656 L 147.933594 256.980469 L 174.171875 256.980469 Z M 143.75 252.800781 L 143.75 287.40625 L 178.355469 287.40625 L 178.355469 252.800781 L 143.75 252.800781 " fill-opacity="1" fill-rule="nonzero"/><path fill="#000000" d="M 227.164062 283.222656 L 200.925781 283.222656 L 200.925781 256.980469 L 227.164062 256.980469 Z M 196.742188 252.800781 L 196.742188 287.40625 L 231.347656 287.40625 L 231.347656 252.800781 L 196.742188 252.800781 " fill-opacity="1" fill-rule="nonzero"/><g clip-path="url(#c04c2f6a19)"><path fill="#000000" d="M 96.171875 54.414062 L 96.171875 81.421875 C 97.324219 80.230469 98.753906 79.304688 100.355469 78.75 L 100.355469 54.414062 Z M 107.398438 54.414062 L 107.398438 78.75 C 109 79.304688 110.425781 80.230469 111.585938 81.421875 L 111.585938 54.414062 L 107.398438 54.414062 " fill-opacity="1" fill-rule="nonzero"/></g><g clip-path="url(#3a321c51d6)"><path fill="#000000" d="M 179.84375 54.414062 L 179.84375 81.421875 C 180.996094 80.230469 182.425781 79.304688 184.023438 78.75 L 184.023438 54.414062 Z M 191.070312 54.414062 L 191.070312 78.75 C 192.671875 79.304688 194.101562 80.230469 195.253906 81.421875 L 195.253906 54.414062 L 191.070312 54.414062 " fill-opacity="1" fill-rule="nonzero"/></g><g clip-path="url(#998da376f8)"><path fill="#000000" d="M 263.511719 81.421875 C 264.667969 80.230469 266.097656 79.304688 267.699219 78.75 L 267.699219 54.414062 L 263.511719 54.414062 Z M 274.742188 54.414062 L 274.742188 78.75 C 276.34375 79.304688 277.769531 80.230469 278.925781 81.421875 L 278.925781 54.414062 L 274.742188 54.414062 " fill-opacity="1" fill-rule="nonzero"/></g></svg>