<svg xmlns="http://www.w3.org/2000/svg" xmlns:xlink="http://www.w3.org/1999/xlink" width="500" zoomAndPan="magnify" viewBox="0 0 375 374.999991" height="500" preserveAspectRatio="xMidYMid meet" version="1.0"><defs><clipPath id="859a0fe93b"><path d="M 31.523438 31.523438 L 343.523438 31.523438 L 343.523438 343.523438 L 31.523438 343.523438 Z M 31.523438 31.523438 " clip-rule="nonzero"/></clipPath></defs><g clip-path="url(#859a0fe93b)"><path fill="#ffffff" d="M 187.453125 59.652344 C 229.085938 59.652344 234.007812 59.789062 250.484375 60.542969 C 265.660156 61.226562 273.929688 63.753906 279.46875 65.941406 C 286.714844 68.746094 291.910156 72.164062 297.378906 77.632812 C 302.847656 83.101562 306.199219 88.296875 309.070312 95.542969 C 311.1875 101.011719 313.71875 109.285156 314.46875 124.527344 C 315.222656 141.003906 315.359375 145.925781 315.359375 187.558594 C 315.359375 229.1875 315.222656 234.109375 314.46875 250.585938 C 313.785156 265.761719 311.257812 274.035156 309.070312 279.570312 C 306.265625 286.816406 302.847656 292.011719 297.378906 297.480469 C 291.910156 302.949219 286.714844 306.300781 279.46875 309.171875 C 274 311.289062 265.726562 313.820312 250.484375 314.570312 C 234.007812 315.324219 229.085938 315.460938 187.453125 315.460938 C 145.824219 315.460938 140.902344 315.324219 124.425781 314.570312 C 109.25 313.886719 100.976562 311.359375 95.441406 309.171875 C 88.195312 306.367188 83 302.949219 77.53125 297.480469 C 72.0625 292.011719 68.710938 286.816406 65.839844 279.570312 C 63.722656 274.101562 61.191406 265.832031 60.441406 250.585938 C 59.6875 234.109375 59.550781 229.1875 59.550781 187.558594 C 59.550781 145.925781 59.6875 141.003906 60.441406 124.527344 C 61.125 109.351562 63.652344 101.082031 65.839844 95.542969 C 68.644531 88.296875 72.0625 83.101562 77.53125 77.632812 C 83 72.164062 88.195312 68.8125 95.441406 65.941406 C 100.910156 63.824219 109.179688 61.292969 124.425781 60.542969 C 140.902344 59.789062 145.824219 59.652344 187.453125 59.652344 M 187.453125 31.558594 C 145.070312 31.558594 139.808594 31.761719 123.128906 32.515625 C 106.515625 33.265625 95.167969 35.933594 85.253906 39.761719 C 75 43.726562 66.320312 49.058594 57.636719 57.738281 C 49.023438 66.421875 43.691406 75.101562 39.726562 85.359375 C 35.898438 95.269531 33.230469 106.617188 32.480469 123.230469 C 31.726562 139.839844 31.523438 145.171875 31.523438 187.488281 C 31.523438 229.871094 31.726562 235.136719 32.480469 251.816406 C 33.230469 268.429688 35.898438 279.777344 39.726562 289.6875 C 43.691406 299.941406 49.023438 308.625 57.707031 317.308594 C 66.386719 325.988281 75.070312 331.320312 85.324219 335.285156 C 95.234375 339.113281 106.582031 341.78125 123.195312 342.53125 C 139.808594 343.285156 145.140625 343.488281 187.523438 343.488281 C 229.90625 343.488281 235.171875 343.285156 251.851562 342.53125 C 268.460938 341.78125 279.8125 339.113281 289.722656 335.285156 C 299.976562 331.320312 308.660156 325.988281 317.339844 317.308594 C 326.023438 308.625 331.355469 299.941406 335.320312 289.6875 C 339.148438 279.777344 341.8125 268.429688 342.566406 251.816406 C 343.316406 235.203125 343.523438 229.871094 343.523438 187.488281 C 343.523438 145.105469 343.316406 139.839844 342.566406 123.160156 C 341.8125 106.550781 339.148438 95.203125 335.320312 85.289062 C 331.355469 75.035156 326.023438 66.351562 317.339844 57.671875 C 308.660156 48.988281 299.976562 43.65625 289.722656 39.691406 C 279.8125 35.863281 268.460938 33.199219 251.851562 32.445312 C 235.171875 31.761719 229.839844 31.558594 187.453125 31.558594 " fill-opacity="1" fill-rule="nonzero"/></g><path fill="#ffffff" d="M 187.453125 107.4375 C 143.226562 107.4375 107.402344 143.257812 107.402344 187.488281 C 107.402344 231.71875 143.292969 267.609375 187.523438 267.609375 C 231.753906 267.609375 267.640625 231.785156 267.640625 187.488281 C 267.574219 143.257812 231.683594 107.4375 187.453125 107.4375 M 187.453125 239.511719 C 158.742188 239.511719 135.5 216.269531 135.5 187.558594 C 135.5 158.84375 158.742188 135.601562 187.453125 135.601562 C 216.167969 135.601562 239.410156 158.84375 239.410156 187.558594 C 239.476562 216.199219 216.167969 239.511719 187.453125 239.511719 " fill-opacity="1" fill-rule="nonzero"/><path fill="#ffffff" d="M 289.449219 104.292969 C 289.449219 114.617188 281.042969 123.023438 270.71875 123.023438 C 260.394531 123.023438 251.988281 114.617188 251.988281 104.292969 C 251.988281 93.972656 260.394531 85.5625 270.71875 85.5625 C 281.042969 85.5625 289.449219 93.902344 289.449219 104.292969 " fill-opacity="1" fill-rule="nonzero"/></svg>