<svg xmlns="http://www.w3.org/2000/svg" xmlns:xlink="http://www.w3.org/1999/xlink" width="500" zoomAndPan="magnify" viewBox="0 0 375 374.999991" height="500" preserveAspectRatio="xMidYMid meet" version="1.0"><defs><clipPath id="dd1741230c"><path d="M 45.34375 17.171875 L 331.09375 17.171875 L 331.09375 337.195312 L 45.34375 337.195312 Z M 45.34375 17.171875 " clip-rule="nonzero"/></clipPath></defs><g clip-path="url(#dd1741230c)"><path fill="#15253d" d="M 311.40625 115.203125 C 301.664062 135.019531 284.867188 152.441406 263.144531 161.25 L 264.707031 143.320312 C 264.652344 129.996094 253.78125 119.011719 239.996094 118.84375 L 214.285156 120.816406 C 214.789062 79.21875 229.308594 46.597656 253.707031 33.273438 C 268.890625 24.988281 285.679688 25.53125 299.808594 34.785156 C 326.378906 52.191406 324.441406 88.675781 311.40625 115.203125 Z M 211.765625 186.964844 C 207.664062 191.183594 200.328125 191.0625 196.1875 186.902344 C 191.9375 182.582031 191.976562 175.601562 196.277344 171.332031 C 196.503906 171.339844 196.605469 171.457031 196.753906 171.507812 C 202.789062 173.609375 208.683594 175.128906 214.445312 176.152344 C 215.289062 178.605469 214.640625 184.011719 211.765625 186.964844 Z M 252.5 164.777344 C 242.832031 167.242188 232.339844 167.988281 221.195312 166.636719 C 220.574219 165.785156 219.949219 164.933594 219.191406 164.171875 C 211.203125 156.042969 197.125 155.960938 189.023438 163.992188 C 180.679688 172.265625 180.601562 185.796875 188.867188 194.160156 C 192.894531 198.238281 198.273438 200.480469 204.003906 200.480469 C 209.65625 200.480469 214.988281 198.292969 219.019531 194.308594 C 223.070312 190.289062 225.050781 182.445312 225.1875 177.472656 C 227.554688 177.648438 229.925781 177.78125 232.242188 177.78125 C 238.949219 177.78125 245.378906 177.015625 251.558594 175.707031 C 251.558594 175.707031 249.949219 190.265625 249.4375 200.0625 C 248.929688 209.859375 248.363281 218.105469 242.617188 223.800781 L 142.574219 322.863281 C 137.3125 328.0625 128.074219 328.007812 122.894531 322.785156 L 59.660156 258.792969 C 57.0625 256.171875 55.640625 252.667969 55.660156 248.929688 C 55.679688 245.207031 57.128906 241.726562 59.761719 239.125 L 159.792969 140.074219 C 165.34375 134.582031 175.082031 133.695312 181.53125 133.460938 C 189.78125 133.15625 240.324219 129.15625 240.324219 129.15625 C 248.046875 129.261719 254.355469 135.632812 254.40625 142.890625 Z M 305.453125 26.148438 C 288.3125 14.910156 267.128906 14.191406 248.761719 24.210938 C 220.863281 39.460938 204.277344 75.78125 203.945312 121.609375 C 203.945312 121.609375 188.480469 123.011719 181.53125 123.136719 C 174.578125 123.261719 161.089844 124.273438 152.539062 132.734375 L 52.503906 231.785156 C 47.921875 236.320312 45.382812 242.390625 45.34375 248.878906 C 45.3125 255.375 47.789062 261.476562 52.324219 266.058594 L 115.5625 330.046875 C 120.136719 334.65625 126.242188 337.195312 132.769531 337.195312 C 139.210938 337.195312 145.265625 334.710938 149.828125 330.203125 L 249.871094 231.140625 C 259.089844 222.003906 258.964844 210.644531 259.738281 200.484375 C 260.515625 190.328125 262.144531 172.820312 262.144531 172.820312 C 288.664062 163.761719 309.121094 143.25 320.664062 119.761719 C 338.972656 82.507812 332.726562 44.011719 305.453125 26.148438 " fill-opacity="1" fill-rule="nonzero"/></g></svg>