<svg xmlns="http://www.w3.org/2000/svg" xmlns:xlink="http://www.w3.org/1999/xlink" width="500" zoomAndPan="magnify" viewBox="0 0 375 374.999991" height="500" preserveAspectRatio="xMidYMid meet" version="1.0"><defs><clipPath id="d5aa0d5851"><path d="M 169 26.316406 L 236 26.316406 L 236 49 L 169 49 Z M 169 26.316406 " clip-rule="nonzero"/></clipPath><clipPath id="0adb5c8b79"><path d="M 169 79 L 337 79 L 337 348.816406 L 169 348.816406 Z M 169 79 " clip-rule="nonzero"/></clipPath><clipPath id="e012f0a416"><path d="M 37.5 187 L 113 187 L 113 196 L 37.5 196 Z M 37.5 187 " clip-rule="nonzero"/></clipPath></defs><path fill="#15253d" d="M 202.363281 324.777344 C 189.167969 324.777344 176.261719 322.472656 164 317.933594 C 161.847656 317.136719 160.746094 314.742188 161.542969 312.585938 C 162.339844 310.429688 164.730469 309.335938 166.882812 310.128906 C 178.21875 314.324219 190.15625 316.453125 202.363281 316.453125 C 258.761719 316.453125 304.648438 270.53125 304.648438 214.082031 C 304.648438 157.628906 258.761719 111.703125 202.363281 111.703125 C 185.976562 111.703125 170.320312 115.464844 155.835938 122.886719 C 153.796875 123.933594 151.292969 123.125 150.242188 121.082031 C 149.199219 119.035156 150.007812 116.527344 152.050781 115.480469 C 167.71875 107.453125 184.648438 103.382812 202.363281 103.382812 C 263.347656 103.382812 312.960938 153.042969 312.960938 214.082031 C 312.960938 275.117188 263.34375 324.777344 202.363281 324.777344 Z M 202.363281 324.777344 " fill-opacity="1" fill-rule="nonzero"/><path fill="#15253d" d="M 201.371094 141.820312 C 199.078125 141.820312 197.214844 139.957031 197.214844 137.660156 L 197.214844 107.9375 C 197.214844 105.636719 199.078125 103.777344 201.371094 103.777344 C 203.667969 103.777344 205.527344 105.636719 205.527344 107.9375 L 205.527344 137.660156 C 205.527344 139.953125 203.667969 141.820312 201.371094 141.820312 Z M 201.371094 141.820312 " fill-opacity="1" fill-rule="nonzero"/><path fill="#15253d" d="M 201.371094 324.777344 C 199.078125 324.777344 197.214844 322.914062 197.214844 320.617188 L 197.214844 290.894531 C 197.214844 288.597656 199.078125 286.734375 201.371094 286.734375 C 203.667969 286.734375 205.527344 288.597656 205.527344 290.894531 L 205.527344 320.617188 C 205.527344 322.914062 203.667969 324.777344 201.371094 324.777344 Z M 201.371094 324.777344 " fill-opacity="1" fill-rule="nonzero"/><path fill="#15253d" d="M 275.027344 293.492188 C 273.941406 293.492188 272.855469 293.070312 272.042969 292.230469 L 251.371094 270.894531 C 249.773438 269.246094 249.8125 266.613281 251.460938 265.011719 C 253.109375 263.414062 255.742188 263.453125 257.339844 265.105469 L 278.011719 286.4375 C 279.609375 288.085938 279.566406 290.71875 277.917969 292.320312 C 277.113281 293.105469 276.066406 293.492188 275.027344 293.492188 Z M 275.027344 293.492188 " fill-opacity="1" fill-rule="nonzero"/><path fill="#15253d" d="M 258.363281 166.578125 C 257.277344 166.578125 256.191406 166.15625 255.378906 165.3125 C 253.78125 163.664062 253.820312 161.027344 255.46875 159.429688 L 276.78125 138.738281 C 278.425781 137.140625 281.0625 137.179688 282.660156 138.828125 C 284.257812 140.480469 284.21875 143.113281 282.566406 144.714844 L 261.253906 165.402344 C 260.449219 166.1875 259.40625 166.578125 258.363281 166.578125 Z M 258.363281 166.578125 " fill-opacity="1" fill-rule="nonzero"/><path fill="#15253d" d="M 307.230469 218.632812 L 275.097656 218.632812 C 272.800781 218.632812 270.941406 216.769531 270.941406 214.472656 C 270.941406 212.175781 272.800781 210.3125 275.097656 210.3125 L 307.230469 210.3125 C 309.527344 210.3125 311.386719 212.175781 311.386719 214.472656 C 311.386719 216.769531 309.527344 218.632812 307.230469 218.632812 Z M 307.230469 218.632812 " fill-opacity="1" fill-rule="nonzero"/><path fill="#15253d" d="M 195.082031 44.597656 L 209.65625 44.597656 L 209.65625 84.039062 L 195.082031 84.039062 Z M 195.082031 44.597656 " fill-opacity="1" fill-rule="nonzero"/><path fill="#15253d" d="M 209.65625 88.199219 L 195.082031 88.199219 C 192.785156 88.199219 190.925781 86.335938 190.925781 84.039062 L 190.925781 44.597656 C 190.925781 42.296875 192.785156 40.4375 195.082031 40.4375 L 209.65625 40.4375 C 211.949219 40.4375 213.8125 42.296875 213.8125 44.597656 L 213.8125 84.039062 C 213.8125 86.335938 211.949219 88.199219 209.65625 88.199219 Z M 199.238281 79.878906 L 205.5 79.878906 L 205.5 48.757812 L 199.238281 48.757812 Z M 199.238281 79.878906 " fill-opacity="1" fill-rule="nonzero"/><path fill="#15253d" d="M 231.441406 37.523438 C 231.441406 41.429688 225.84375 44.59375 218.933594 44.59375 L 185.796875 44.59375 C 178.886719 44.59375 173.296875 41.429688 173.296875 37.523438 C 173.296875 33.621094 178.886719 30.457031 185.796875 30.457031 L 218.933594 30.457031 C 225.84375 30.457031 231.441406 33.621094 231.441406 37.523438 Z M 231.441406 37.523438 " fill-opacity="1" fill-rule="nonzero"/><g clip-path="url(#d5aa0d5851)"><path fill="#15253d" d="M 218.933594 48.757812 L 185.796875 48.757812 C 176.300781 48.757812 169.136719 43.929688 169.136719 37.523438 C 169.136719 31.121094 176.300781 26.296875 185.796875 26.296875 L 218.933594 26.296875 C 228.433594 26.296875 235.597656 31.121094 235.597656 37.523438 C 235.597656 43.929688 228.433594 48.757812 218.933594 48.757812 Z M 185.800781 34.617188 C 180.445312 34.617188 177.585938 36.859375 177.449219 37.539062 C 177.582031 38.195312 180.441406 40.4375 185.800781 40.4375 L 218.9375 40.4375 C 224.292969 40.4375 227.152344 38.195312 227.285156 37.511719 C 227.152344 36.859375 224.285156 34.621094 218.9375 34.621094 L 185.800781 34.621094 Z M 185.800781 34.617188 " fill-opacity="1" fill-rule="nonzero"/></g><path fill="#15253d" d="M 314.925781 86.078125 L 325.382812 96.246094 L 297.929688 124.535156 L 287.472656 114.367188 Z M 314.925781 86.078125 " fill-opacity="1" fill-rule="nonzero"/><path fill="#15253d" d="M 297.9375 128.679688 C 296.894531 128.679688 295.851562 128.289062 295.042969 127.503906 L 284.585938 117.335938 C 283.792969 116.566406 283.339844 115.515625 283.324219 114.410156 C 283.308594 113.308594 283.730469 112.242188 284.5 111.453125 L 311.957031 83.164062 C 313.558594 81.515625 316.191406 81.476562 317.835938 83.078125 L 328.289062 93.242188 C 329.082031 94.011719 329.535156 95.0625 329.550781 96.164062 C 329.566406 97.269531 329.144531 98.332031 328.375 99.125 L 300.917969 127.417969 C 300.105469 128.257812 299.019531 128.679688 297.9375 128.679688 Z M 293.359375 114.265625 L 297.851562 118.632812 L 319.515625 96.308594 L 315.023438 91.941406 Z M 293.359375 114.265625 " fill-opacity="1" fill-rule="nonzero"/><path fill="#15253d" d="M 345.945312 106.351562 C 343.226562 109.152344 337.007812 107.519531 332.050781 102.699219 L 308.285156 79.589844 C 303.328125 74.765625 301.515625 68.597656 304.238281 65.796875 C 306.953125 62.996094 313.171875 64.628906 318.128906 69.449219 L 341.894531 92.558594 C 346.851562 97.378906 348.660156 103.550781 345.945312 106.351562 Z M 345.945312 106.351562 " fill-opacity="1" fill-rule="nonzero"/><path fill="#15253d" d="M 342.261719 111.878906 C 338.046875 111.878906 333.144531 109.5625 329.152344 105.683594 L 305.386719 82.570312 C 302.480469 79.75 300.355469 76.386719 299.390625 73.105469 C 298.203125 69.058594 298.882812 65.335938 301.253906 62.894531 C 302.921875 61.175781 305.226562 60.265625 307.914062 60.265625 C 312.128906 60.265625 317.027344 62.582031 321.023438 66.460938 L 344.789062 89.570312 C 351.601562 96.195312 353.382812 104.65625 348.929688 109.25 C 347.257812 110.972656 344.953125 111.878906 342.261719 111.878906 Z M 307.914062 68.585938 C 307.472656 68.585938 307.25 68.671875 307.207031 68.703125 C 306.84375 69.265625 307.339844 72.867188 311.179688 76.601562 L 334.945312 99.714844 C 337.679688 102.371094 340.589844 103.558594 342.261719 103.558594 C 342.707031 103.558594 342.929688 103.472656 342.972656 103.445312 C 343.332031 102.882812 342.835938 99.277344 338.992188 95.542969 L 315.230469 72.429688 C 312.496094 69.777344 309.585938 68.585938 307.914062 68.585938 Z M 307.914062 68.585938 " fill-opacity="1" fill-rule="nonzero"/><g clip-path="url(#0adb5c8b79)"><path fill="#38b6ff" d="M 202.363281 348.671875 C 192.242188 348.671875 182.152344 347.539062 172.371094 345.304688 C 170.132812 344.792969 168.730469 342.5625 169.242188 340.324219 C 169.753906 338.085938 171.972656 336.671875 174.21875 337.191406 C 183.394531 339.289062 192.863281 340.351562 202.363281 340.351562 C 271.820312 340.351562 328.324219 283.792969 328.324219 214.273438 C 328.324219 144.757812 271.820312 88.199219 202.363281 88.199219 C 192.867188 88.199219 183.394531 89.261719 174.21875 91.359375 C 171.980469 91.871094 169.75 90.46875 169.242188 88.226562 C 168.730469 85.988281 170.128906 83.757812 172.371094 83.246094 C 182.152344 81.011719 192.242188 79.878906 202.363281 79.878906 C 276.402344 79.878906 336.636719 140.167969 336.636719 214.273438 C 336.636719 288.382812 276.402344 348.671875 202.363281 348.671875 Z M 202.363281 348.671875 " fill-opacity="1" fill-rule="nonzero"/></g><path fill="#38b6ff" d="M 202.363281 218.433594 C 201.605469 218.433594 200.847656 218.226562 200.179688 217.816406 C 198.953125 217.054688 198.207031 215.714844 198.207031 214.273438 L 198.207031 155.539062 C 198.207031 153.242188 200.070312 151.378906 202.363281 151.378906 C 204.660156 151.378906 206.523438 153.242188 206.523438 155.539062 L 206.523438 207.542969 L 237.246094 192.167969 C 239.300781 191.140625 241.796875 191.972656 242.824219 194.027344 C 243.851562 196.082031 243.015625 198.582031 240.964844 199.609375 L 204.222656 217.996094 C 203.636719 218.289062 203 218.433594 202.363281 218.433594 Z M 202.363281 218.433594 " fill-opacity="1" fill-rule="nonzero"/><path fill="#15253d" d="M 137.464844 133.535156 L 100.316406 133.535156 C 98.019531 133.535156 96.160156 131.671875 96.160156 129.375 C 96.160156 127.078125 98.019531 125.214844 100.316406 125.214844 L 137.464844 125.214844 C 139.761719 125.214844 141.621094 127.078125 141.621094 129.375 C 141.621094 131.671875 139.761719 133.535156 137.464844 133.535156 Z M 137.464844 133.535156 " fill-opacity="1" fill-rule="nonzero"/><path fill="#15253d" d="M 146.910156 325.167969 L 109.761719 325.167969 C 107.46875 325.167969 105.605469 323.304688 105.605469 321.007812 C 105.605469 318.710938 107.46875 316.847656 109.761719 316.847656 L 146.910156 316.847656 C 149.207031 316.847656 151.070312 318.710938 151.070312 321.007812 C 151.070312 323.304688 149.207031 325.167969 146.910156 325.167969 Z M 146.910156 325.167969 " fill-opacity="1" fill-rule="nonzero"/><path fill="#15253d" d="M 106.546875 230.234375 L 43.730469 230.234375 C 41.4375 230.234375 39.574219 228.371094 39.574219 226.074219 C 39.574219 223.773438 41.4375 221.910156 43.730469 221.910156 L 106.546875 221.910156 C 108.84375 221.910156 110.703125 223.773438 110.703125 226.074219 C 110.703125 228.371094 108.839844 230.234375 106.546875 230.234375 Z M 106.546875 230.234375 " fill-opacity="1" fill-rule="nonzero"/><path fill="#15253d" d="M 111.1875 264.09375 L 48.371094 264.09375 C 46.078125 264.09375 44.214844 262.230469 44.214844 259.929688 C 44.214844 257.632812 46.078125 255.769531 48.371094 255.769531 L 111.1875 255.769531 C 113.484375 255.769531 115.34375 257.632812 115.34375 259.929688 C 115.34375 262.230469 113.480469 264.09375 111.1875 264.09375 Z M 111.1875 264.09375 " fill-opacity="1" fill-rule="nonzero"/><path fill="#15253d" d="M 129.761719 297.582031 L 66.945312 297.582031 C 64.652344 297.582031 62.789062 295.722656 62.789062 293.421875 C 62.789062 291.125 64.652344 289.261719 66.945312 289.261719 L 129.757812 289.261719 C 132.054688 289.261719 133.914062 291.125 133.914062 293.421875 C 133.914062 295.722656 132.054688 297.582031 129.761719 297.582031 Z M 129.761719 297.582031 " fill-opacity="1" fill-rule="nonzero"/><path fill="#15253d" d="M 118.890625 162.566406 L 59.765625 162.566406 C 57.46875 162.566406 55.609375 160.703125 55.609375 158.40625 C 55.609375 156.105469 57.46875 154.246094 59.765625 154.246094 L 118.890625 154.246094 C 121.1875 154.246094 123.046875 156.105469 123.046875 158.40625 C 123.046875 160.703125 121.1875 162.566406 118.890625 162.566406 Z M 118.890625 162.566406 " fill-opacity="1" fill-rule="nonzero"/><g clip-path="url(#e012f0a416)"><path fill="#15253d" d="M 108.5625 195.457031 L 41.714844 195.457031 C 39.417969 195.457031 37.554688 193.59375 37.554688 191.296875 C 37.554688 188.996094 39.417969 187.132812 41.714844 187.132812 L 108.5625 187.132812 C 110.859375 187.132812 112.71875 188.996094 112.71875 191.296875 C 112.71875 193.59375 110.859375 195.457031 108.5625 195.457031 Z M 108.5625 195.457031 " fill-opacity="1" fill-rule="nonzero"/></g></svg>