<svg xmlns="http://www.w3.org/2000/svg" xmlns:xlink="http://www.w3.org/1999/xlink" width="500" zoomAndPan="magnify" viewBox="0 0 375 374.999991" height="500" preserveAspectRatio="xMidYMid meet" version="1.0"><defs><clipPath id="8a6751f009"><path d="M 69 33.152344 L 306 33.152344 L 306 342 L 69 342 Z M 69 33.152344 " clip-rule="nonzero"/></clipPath></defs><path fill="#15253d" d="M 92.773438 206.300781 C 92.773438 207.851562 92.8125 209.402344 92.886719 210.953125 C 92.964844 212.503906 93.078125 214.050781 93.230469 215.59375 C 93.382812 217.136719 93.570312 218.679688 93.800781 220.210938 C 94.027344 221.746094 94.292969 223.277344 94.59375 224.796875 C 94.898438 226.320312 95.238281 227.832031 95.613281 229.339844 C 95.988281 230.84375 96.402344 232.339844 96.855469 233.824219 C 97.304688 235.308594 97.789062 236.78125 98.3125 238.242188 C 98.835938 239.703125 99.390625 241.152344 99.984375 242.582031 C 100.578125 244.015625 101.207031 245.4375 101.871094 246.839844 C 102.53125 248.242188 103.230469 249.625 103.960938 250.996094 C 104.691406 252.363281 105.457031 253.714844 106.253906 255.042969 C 107.050781 256.375 107.878906 257.6875 108.738281 258.976562 C 109.601562 260.265625 110.492188 261.535156 111.417969 262.78125 C 112.339844 264.027344 113.292969 265.25 114.277344 266.449219 C 115.261719 267.648438 116.273438 268.824219 117.316406 269.972656 C 118.355469 271.121094 119.425781 272.246094 120.523438 273.34375 C 121.617188 274.441406 122.742188 275.511719 123.890625 276.550781 C 125.039062 277.59375 126.210938 278.609375 127.410156 279.59375 C 128.609375 280.578125 129.832031 281.53125 131.074219 282.453125 C 132.320312 283.378906 133.589844 284.273438 134.878906 285.132812 C 136.167969 285.996094 137.476562 286.828125 138.804688 287.625 C 140.136719 288.421875 141.484375 289.1875 142.851562 289.917969 C 144.21875 290.648438 145.605469 291.347656 147.003906 292.011719 C 148.40625 292.671875 149.824219 293.300781 151.257812 293.894531 C 152.6875 294.488281 154.132812 295.046875 155.59375 295.570312 C 157.054688 296.09375 158.527344 296.582031 160.007812 297.03125 C 161.492188 297.480469 162.988281 297.894531 164.492188 298.273438 C 165.996094 298.648438 167.507812 298.988281 169.027344 299.292969 C 170.546875 299.59375 172.074219 299.859375 173.609375 300.085938 C 175.144531 300.316406 176.679688 300.503906 178.222656 300.65625 C 179.765625 300.808594 181.3125 300.921875 182.863281 301 C 184.410156 301.074219 185.960938 301.113281 187.511719 301.113281 C 189.058594 301.113281 190.609375 301.074219 192.160156 301 C 193.707031 300.921875 195.253906 300.808594 196.796875 300.65625 C 198.339844 300.503906 199.875 300.316406 201.410156 300.085938 C 202.945312 299.859375 204.472656 299.59375 205.992188 299.292969 C 207.511719 298.988281 209.023438 298.648438 210.527344 298.273438 C 212.03125 297.894531 213.527344 297.480469 215.011719 297.03125 C 216.492188 296.582031 217.964844 296.09375 219.425781 295.570312 C 220.886719 295.046875 222.332031 294.488281 223.761719 293.894531 C 225.195312 293.300781 226.613281 292.671875 228.015625 292.011719 C 229.417969 291.347656 230.800781 290.648438 232.167969 289.917969 C 233.535156 289.1875 234.882812 288.421875 236.214844 287.625 C 237.542969 286.828125 238.851562 285.996094 240.140625 285.132812 C 241.429688 284.273438 242.699219 283.378906 243.945312 282.453125 C 245.1875 281.53125 246.410156 280.578125 247.609375 279.59375 C 248.808594 278.609375 249.980469 277.59375 251.128906 276.550781 C 252.277344 275.511719 253.402344 274.441406 254.5 273.34375 C 255.59375 272.246094 256.664062 271.121094 257.703125 269.972656 C 258.746094 268.824219 259.757812 267.648438 260.742188 266.449219 C 261.726562 265.25 262.679688 264.027344 263.601562 262.78125 C 264.527344 261.535156 265.417969 260.265625 266.28125 258.976562 C 267.140625 257.6875 267.96875 256.375 268.765625 255.042969 C 269.5625 253.714844 270.328125 252.363281 271.058594 250.996094 C 271.789062 249.625 272.488281 248.242188 273.148438 246.839844 C 273.8125 245.4375 274.441406 244.015625 275.035156 242.582031 C 275.628906 241.152344 276.183594 239.703125 276.707031 238.242188 C 277.230469 236.78125 277.714844 235.308594 278.167969 233.824219 C 278.617188 232.339844 279.03125 230.84375 279.40625 229.339844 C 279.78125 227.832031 280.121094 226.320312 280.425781 224.796875 C 280.726562 223.277344 280.992188 221.746094 281.21875 220.210938 C 281.449219 218.679688 281.636719 217.136719 281.789062 215.59375 C 281.941406 214.050781 282.054688 212.503906 282.132812 210.953125 C 282.207031 209.402344 282.246094 207.851562 282.246094 206.300781 C 282.246094 204.75 282.207031 203.199219 282.132812 201.648438 C 282.054688 200.097656 281.941406 198.550781 281.789062 197.007812 C 281.636719 195.464844 281.449219 193.921875 281.21875 192.390625 C 280.992188 190.855469 280.726562 189.324219 280.425781 187.804688 C 280.121094 186.28125 279.78125 184.769531 279.40625 183.261719 C 279.03125 181.757812 278.617188 180.261719 278.167969 178.777344 C 277.714844 177.292969 277.230469 175.820312 276.707031 174.359375 C 276.183594 172.898438 275.628906 171.449219 275.035156 170.015625 C 274.441406 168.582031 273.8125 167.164062 273.148438 165.761719 C 272.488281 164.359375 271.789062 162.976562 271.058594 161.605469 C 270.328125 160.238281 269.5625 158.886719 268.765625 157.558594 C 267.96875 156.226562 267.140625 154.914062 266.28125 153.625 C 265.417969 152.335938 264.527344 151.066406 263.601562 149.820312 C 262.679688 148.574219 261.726562 147.351562 260.742188 146.152344 C 259.757812 144.953125 258.746094 143.777344 257.703125 142.628906 C 256.664062 141.480469 255.59375 140.355469 254.496094 139.257812 C 253.402344 138.160156 252.277344 137.089844 251.128906 136.050781 C 249.980469 135.007812 248.808594 133.992188 247.609375 133.007812 C 246.410156 132.023438 245.1875 131.070312 243.945312 130.144531 C 242.699219 129.222656 241.429688 128.328125 240.140625 127.46875 C 238.851562 126.605469 237.542969 125.773438 236.214844 124.976562 C 234.882812 124.179688 233.535156 123.414062 232.167969 122.683594 C 230.800781 121.953125 229.417969 121.253906 228.015625 120.589844 C 226.613281 119.925781 225.195312 119.300781 223.761719 118.707031 C 222.332031 118.113281 220.886719 117.554688 219.425781 117.03125 C 217.964844 116.507812 216.492188 116.019531 215.011719 115.570312 C 213.527344 115.121094 212.03125 114.707031 210.527344 114.328125 C 209.023438 113.953125 207.511719 113.613281 205.992188 113.308594 C 204.472656 113.007812 202.945312 112.742188 201.410156 112.515625 C 199.875 112.285156 198.339844 112.097656 196.796875 111.945312 C 195.253906 111.792969 193.707031 111.679688 192.160156 111.601562 C 190.609375 111.527344 189.058594 111.488281 187.511719 111.488281 C 185.960938 111.488281 184.410156 111.527344 182.863281 111.605469 C 181.316406 111.683594 179.769531 111.800781 178.226562 111.953125 C 176.683594 112.105469 175.148438 112.296875 173.613281 112.527344 C 172.082031 112.753906 170.554688 113.023438 169.035156 113.324219 C 167.515625 113.628906 166.003906 113.972656 164.5 114.347656 C 162.996094 114.726562 161.503906 115.140625 160.019531 115.59375 C 158.539062 116.042969 157.066406 116.53125 155.609375 117.054688 C 154.148438 117.578125 152.703125 118.136719 151.269531 118.730469 C 149.839844 119.324219 148.421875 119.953125 147.023438 120.617188 C 145.621094 121.28125 144.238281 121.980469 142.871094 122.710938 C 141.503906 123.445312 140.15625 124.207031 138.828125 125.007812 C 137.5 125.804688 136.1875 126.636719 134.902344 127.496094 C 133.613281 128.359375 132.34375 129.253906 131.101562 130.175781 C 129.855469 131.101562 128.632812 132.054688 127.4375 133.039062 C 126.238281 134.023438 125.066406 135.035156 123.917969 136.078125 C 122.769531 137.121094 121.644531 138.191406 120.550781 139.285156 C 119.453125 140.382812 118.386719 141.507812 117.34375 142.65625 C 116.304688 143.804688 115.292969 144.980469 114.308594 146.179688 C 113.324219 147.378906 112.371094 148.601562 111.449219 149.847656 C 110.523438 151.089844 109.632812 152.359375 108.769531 153.648438 C 107.910156 154.9375 107.078125 156.25 106.28125 157.578125 C 105.484375 158.910156 104.71875 160.257812 103.988281 161.625 C 103.257812 162.992188 102.5625 164.378906 101.898438 165.78125 C 101.234375 167.183594 100.605469 168.601562 100.011719 170.03125 C 99.417969 171.464844 98.859375 172.914062 98.335938 174.371094 C 97.8125 175.832031 97.328125 177.304688 96.875 178.789062 C 96.425781 180.273438 96.011719 181.765625 95.632812 183.273438 C 95.253906 184.777344 94.914062 186.289062 94.609375 187.808594 C 94.308594 189.332031 94.042969 190.859375 93.8125 192.394531 C 93.582031 193.929688 93.394531 195.46875 93.238281 197.011719 C 93.085938 198.554688 92.96875 200.101562 92.894531 201.648438 C 92.816406 203.199219 92.777344 204.75 92.773438 206.300781 Z M 269.128906 206.300781 C 269.128906 207.636719 269.097656 208.972656 269.03125 210.308594 C 268.96875 211.644531 268.867188 212.976562 268.738281 214.308594 C 268.605469 215.640625 268.445312 216.964844 268.246094 218.289062 C 268.050781 219.613281 267.824219 220.929688 267.5625 222.238281 C 267.300781 223.550781 267.007812 224.855469 266.683594 226.152344 C 266.359375 227.449219 266.003906 228.738281 265.617188 230.019531 C 265.230469 231.296875 264.808594 232.566406 264.359375 233.824219 C 263.910156 235.085938 263.429688 236.332031 262.917969 237.566406 C 262.40625 238.800781 261.867188 240.023438 261.292969 241.234375 C 260.722656 242.441406 260.121094 243.636719 259.492188 244.816406 C 258.863281 245.996094 258.203125 247.15625 257.519531 248.304688 C 256.832031 249.453125 256.117188 250.582031 255.375 251.691406 C 254.632812 252.804688 253.863281 253.898438 253.066406 254.972656 C 252.269531 256.046875 251.449219 257.097656 250.601562 258.132812 C 249.753906 259.167969 248.882812 260.179688 247.984375 261.167969 C 247.085938 262.160156 246.167969 263.128906 245.222656 264.074219 C 244.277344 265.019531 243.308594 265.941406 242.320312 266.839844 C 241.328125 267.738281 240.316406 268.609375 239.285156 269.457031 C 238.253906 270.304688 237.199219 271.128906 236.125 271.925781 C 235.054688 272.722656 233.960938 273.492188 232.851562 274.234375 C 231.738281 274.976562 230.609375 275.691406 229.464844 276.378906 C 228.320312 277.066406 227.15625 277.726562 225.976562 278.355469 C 224.800781 278.988281 223.605469 279.589844 222.398438 280.160156 C 221.191406 280.730469 219.96875 281.273438 218.734375 281.785156 C 217.5 282.296875 216.253906 282.777344 214.996094 283.226562 C 213.738281 283.679688 212.472656 284.097656 211.191406 284.484375 C 209.914062 284.875 208.625 285.230469 207.332031 285.554688 C 206.035156 285.878906 204.730469 286.171875 203.421875 286.433594 C 202.109375 286.695312 200.792969 286.921875 199.472656 287.121094 C 198.152344 287.316406 196.824219 287.480469 195.496094 287.609375 C 194.164062 287.742188 192.832031 287.839844 191.5 287.90625 C 190.164062 287.972656 188.828125 288.003906 187.492188 288.003906 C 186.15625 288.003906 184.824219 287.972656 183.488281 287.90625 C 182.152344 287.839844 180.820312 287.742188 179.492188 287.609375 C 178.164062 287.480469 176.835938 287.316406 175.515625 287.121094 C 174.195312 286.925781 172.878906 286.695312 171.566406 286.433594 C 170.257812 286.175781 168.953125 285.882812 167.65625 285.558594 C 166.363281 285.230469 165.074219 284.875 163.796875 284.488281 C 162.515625 284.097656 161.25 283.679688 159.992188 283.230469 C 158.734375 282.777344 157.488281 282.296875 156.253906 281.785156 C 155.019531 281.273438 153.796875 280.734375 152.589844 280.160156 C 151.382812 279.589844 150.1875 278.988281 149.011719 278.359375 C 147.832031 277.726562 146.671875 277.070312 145.523438 276.382812 C 144.378906 275.695312 143.25 274.980469 142.140625 274.238281 C 141.027344 273.492188 139.9375 272.722656 138.863281 271.925781 C 137.789062 271.132812 136.738281 270.308594 135.703125 269.460938 C 134.671875 268.613281 133.660156 267.738281 132.667969 266.839844 C 131.679688 265.941406 130.710938 265.019531 129.769531 264.074219 C 128.824219 263.128906 127.902344 262.160156 127.003906 261.171875 C 126.109375 260.179688 125.234375 259.167969 124.386719 258.132812 C 123.539062 257.101562 122.71875 256.046875 121.921875 254.972656 C 121.125 253.898438 120.355469 252.804688 119.613281 251.695312 C 118.871094 250.582031 118.160156 249.453125 117.472656 248.304688 C 116.785156 247.160156 116.125 245.996094 115.496094 244.816406 C 114.867188 243.636719 114.265625 242.445312 113.695312 241.234375 C 113.125 240.027344 112.582031 238.804688 112.070312 237.570312 C 111.558594 236.332031 111.078125 235.085938 110.628906 233.828125 C 110.179688 232.566406 109.757812 231.296875 109.371094 230.019531 C 108.984375 228.738281 108.628906 227.449219 108.304688 226.152344 C 107.976562 224.855469 107.6875 223.550781 107.425781 222.242188 C 107.164062 220.929688 106.9375 219.613281 106.738281 218.289062 C 106.542969 216.96875 106.378906 215.640625 106.25 214.308594 C 106.117188 212.980469 106.019531 211.644531 105.953125 210.308594 C 105.890625 208.972656 105.855469 207.636719 105.855469 206.300781 C 105.855469 204.964844 105.890625 203.628906 105.953125 202.292969 C 106.019531 200.957031 106.117188 199.625 106.25 198.292969 C 106.378906 196.960938 106.542969 195.636719 106.738281 194.3125 C 106.9375 192.988281 107.164062 191.671875 107.425781 190.363281 C 107.683594 189.050781 107.976562 187.746094 108.300781 186.449219 C 108.628906 185.152344 108.984375 183.863281 109.371094 182.582031 C 109.757812 181.304688 110.179688 180.035156 110.628906 178.777344 C 111.078125 177.515625 111.558594 176.269531 112.070312 175.035156 C 112.582031 173.800781 113.125 172.578125 113.695312 171.367188 C 114.265625 170.160156 114.867188 168.964844 115.496094 167.785156 C 116.125 166.605469 116.785156 165.445312 117.472656 164.296875 C 118.160156 163.148438 118.875 162.019531 119.617188 160.910156 C 120.359375 159.796875 121.128906 158.703125 121.921875 157.628906 C 122.71875 156.554688 123.542969 155.503906 124.390625 154.46875 C 125.238281 153.433594 126.109375 152.421875 127.007812 151.433594 C 127.902344 150.441406 128.824219 149.472656 129.769531 148.527344 C 130.714844 147.582031 131.683594 146.660156 132.671875 145.761719 C 133.664062 144.863281 134.675781 143.992188 135.707031 143.144531 C 136.742188 142.296875 137.792969 141.472656 138.867188 140.675781 C 139.941406 139.878906 141.03125 139.109375 142.144531 138.367188 C 143.253906 137.625 144.382812 136.910156 145.53125 136.222656 C 146.675781 135.535156 147.839844 134.875 149.015625 134.246094 C 150.195312 133.613281 151.390625 133.011719 152.597656 132.441406 C 153.804688 131.871094 155.027344 131.328125 156.261719 130.816406 C 157.496094 130.304688 158.742188 129.824219 160 129.375 C 161.257812 128.921875 162.527344 128.503906 163.804688 128.117188 C 165.085938 127.726562 166.371094 127.371094 167.667969 127.046875 C 168.964844 126.722656 170.269531 126.429688 171.578125 126.167969 C 172.890625 125.90625 174.207031 125.679688 175.527344 125.480469 C 176.851562 125.285156 178.175781 125.121094 179.507812 124.992188 C 180.835938 124.859375 182.167969 124.761719 183.503906 124.695312 C 184.839844 124.628906 186.171875 124.597656 187.511719 124.597656 C 188.84375 124.597656 190.179688 124.632812 191.515625 124.699219 C 192.847656 124.765625 194.179688 124.867188 195.507812 125 C 196.835938 125.128906 198.164062 125.296875 199.484375 125.492188 C 200.804688 125.691406 202.121094 125.917969 203.429688 126.179688 C 204.738281 126.441406 206.042969 126.734375 207.335938 127.0625 C 208.632812 127.386719 209.917969 127.746094 211.195312 128.132812 C 212.476562 128.523438 213.742188 128.941406 215 129.394531 C 216.257812 129.84375 217.503906 130.328125 218.734375 130.839844 C 219.96875 131.351562 221.191406 131.894531 222.398438 132.464844 C 223.605469 133.039062 224.796875 133.636719 225.972656 134.269531 C 227.152344 134.898438 228.3125 135.558594 229.457031 136.246094 C 230.605469 136.933594 231.730469 137.648438 232.839844 138.390625 C 233.953125 139.136719 235.042969 139.90625 236.117188 140.703125 C 237.1875 141.5 238.242188 142.320312 239.273438 143.167969 C 240.304688 144.015625 241.316406 144.890625 242.304688 145.789062 C 243.296875 146.6875 244.261719 147.605469 245.207031 148.550781 C 246.152344 149.496094 247.070312 150.464844 247.96875 151.457031 C 248.863281 152.445312 249.738281 153.457031 250.585938 154.492188 C 251.429688 155.523438 252.253906 156.578125 253.046875 157.652344 C 253.84375 158.726562 254.613281 159.816406 255.355469 160.929688 C 256.097656 162.039062 256.8125 163.167969 257.5 164.316406 C 258.1875 165.460938 258.84375 166.625 259.472656 167.804688 C 260.105469 168.980469 260.703125 170.175781 261.277344 171.382812 C 261.847656 172.59375 262.390625 173.8125 262.898438 175.046875 C 263.410156 176.28125 263.894531 177.53125 264.34375 178.789062 C 264.792969 180.046875 265.214844 181.316406 265.601562 182.59375 C 265.988281 183.871094 266.347656 185.160156 266.671875 186.457031 C 266.996094 187.753906 267.289062 189.058594 267.550781 190.367188 C 267.8125 191.679688 268.042969 192.996094 268.238281 194.316406 C 268.433594 195.640625 268.601562 196.964844 268.730469 198.296875 C 268.863281 199.625 268.960938 200.957031 269.027344 202.292969 C 269.09375 203.628906 269.128906 204.964844 269.128906 206.300781 Z M 269.128906 206.300781 " fill-opacity="1" fill-rule="nonzero"/><path fill="#15253d" d="M 180.945312 149.0625 L 180.945312 212.855469 L 227.933594 212.855469 L 227.933594 199.746094 L 194.042969 199.746094 L 194.042969 149.0625 Z M 180.945312 149.0625 " fill-opacity="1" fill-rule="nonzero"/><g clip-path="url(#8a6751f009)"><path fill="#15253d" d="M 177.71875 67.621094 L 180.992188 67.621094 L 180.992188 88.5625 C 178.007812 88.734375 175.035156 89.015625 172.074219 89.414062 C 169.109375 89.808594 166.167969 90.320312 163.246094 90.941406 C 160.320312 91.558594 157.425781 92.292969 154.554688 93.132812 C 151.6875 93.972656 148.855469 94.921875 146.058594 95.980469 C 143.261719 97.035156 140.511719 98.199219 137.804688 99.464844 C 135.097656 100.730469 132.441406 102.097656 129.835938 103.566406 C 127.230469 105.035156 124.6875 106.597656 122.203125 108.261719 C 119.71875 109.921875 117.300781 111.679688 114.949219 113.523438 C 112.597656 115.371094 110.316406 117.304688 108.113281 119.324219 C 105.910156 121.34375 103.785156 123.441406 101.738281 125.625 C 99.691406 127.804688 97.734375 130.0625 95.859375 132.390625 C 93.984375 134.722656 92.203125 137.121094 90.511719 139.585938 C 88.820312 142.054688 87.226562 144.582031 85.726562 147.167969 C 84.226562 149.753906 82.828125 152.394531 81.527344 155.089844 C 80.230469 157.785156 79.035156 160.523438 77.945312 163.308594 C 76.855469 166.09375 75.871094 168.917969 74.996094 171.777344 C 74.121094 174.636719 73.355469 177.527344 72.695312 180.445312 C 72.039062 183.363281 71.496094 186.300781 71.0625 189.261719 C 70.628906 192.222656 70.308594 195.191406 70.101562 198.175781 C 69.894531 201.160156 69.800781 204.148438 69.820312 207.140625 C 69.839844 210.132812 69.976562 213.117188 70.222656 216.097656 C 70.46875 219.078125 70.828125 222.046875 71.300781 225 C 71.773438 227.953125 72.355469 230.886719 73.050781 233.792969 C 73.746094 236.703125 74.550781 239.582031 75.464844 242.429688 C 76.378906 245.277344 77.398438 248.089844 78.527344 250.859375 C 79.65625 253.628906 80.886719 256.351562 82.21875 259.027344 C 83.554688 261.707031 84.988281 264.328125 86.523438 266.894531 C 88.054688 269.460938 89.683594 271.96875 91.410156 274.410156 C 93.132812 276.855469 94.945312 279.230469 96.851562 281.535156 C 98.753906 283.839844 100.746094 286.070312 102.820312 288.222656 C 104.894531 290.378906 107.046875 292.449219 109.277344 294.441406 C 111.507812 296.429688 113.8125 298.332031 116.1875 300.148438 L 105.121094 319.351562 C 104.796875 319.914062 104.507812 320.496094 104.261719 321.097656 C 104.011719 321.695312 103.804688 322.308594 103.636719 322.9375 C 103.46875 323.5625 103.34375 324.199219 103.257812 324.84375 C 103.171875 325.488281 103.128906 326.132812 103.128906 326.785156 C 103.128906 327.433594 103.171875 328.082031 103.257812 328.722656 C 103.339844 329.367188 103.464844 330.003906 103.632812 330.632812 C 103.800781 331.257812 104.007812 331.871094 104.253906 332.472656 C 104.503906 333.074219 104.789062 333.65625 105.113281 334.21875 C 105.4375 334.78125 105.792969 335.320312 106.1875 335.835938 C 106.582031 336.351562 107.007812 336.839844 107.464844 337.300781 C 107.925781 337.761719 108.410156 338.191406 108.925781 338.585938 C 109.4375 338.984375 109.976562 339.34375 110.535156 339.671875 C 111.097656 339.996094 111.679688 340.285156 112.277344 340.535156 C 112.875 340.785156 113.488281 340.996094 114.113281 341.167969 C 114.742188 341.335938 115.375 341.464844 116.019531 341.550781 C 116.660156 341.640625 117.308594 341.683594 117.957031 341.6875 C 119.265625 341.6875 120.550781 341.519531 121.816406 341.183594 C 123.082031 340.84375 124.28125 340.347656 125.414062 339.695312 C 126.550781 339.039062 127.578125 338.25 128.503906 337.324219 C 129.429688 336.398438 130.222656 335.367188 130.875 334.230469 L 142.007812 315.042969 C 145.605469 316.550781 149.273438 317.878906 153.003906 319.023438 C 156.734375 320.167969 160.511719 321.128906 164.335938 321.898438 C 168.160156 322.667969 172.015625 323.246094 175.898438 323.632812 C 179.78125 324.019531 183.671875 324.210938 187.574219 324.210938 C 191.476562 324.210938 195.371094 324.019531 199.253906 323.632812 C 203.136719 323.246094 206.988281 322.667969 210.816406 321.898438 C 214.640625 321.128906 218.417969 320.167969 222.148438 319.023438 C 225.878906 317.878906 229.542969 316.550781 233.140625 315.042969 L 244.226562 334.230469 C 245.207031 335.945312 246.476562 337.402344 248.042969 338.601562 C 249.605469 339.804688 251.34375 340.65625 253.25 341.164062 C 254.519531 341.5 255.8125 341.671875 257.128906 341.671875 C 257.777344 341.667969 258.425781 341.625 259.066406 341.539062 C 259.710938 341.453125 260.347656 341.328125 260.972656 341.160156 C 261.601562 340.988281 262.214844 340.78125 262.8125 340.53125 C 263.414062 340.28125 263.992188 339.992188 264.554688 339.667969 C 265.117188 339.34375 265.65625 338.980469 266.167969 338.585938 C 266.683594 338.191406 267.171875 337.761719 267.628906 337.300781 C 268.085938 336.84375 268.515625 336.355469 268.910156 335.839844 C 269.304688 335.324219 269.664062 334.785156 269.988281 334.222656 C 270.3125 333.660156 270.597656 333.078125 270.847656 332.476562 C 271.09375 331.875 271.300781 331.261719 271.46875 330.632812 C 271.636719 330.007812 271.761719 329.371094 271.847656 328.726562 C 271.933594 328.082031 271.972656 327.433594 271.972656 326.785156 C 271.972656 326.136719 271.929688 325.488281 271.847656 324.84375 C 271.761719 324.199219 271.632812 323.566406 271.464844 322.9375 C 271.296875 322.308594 271.089844 321.695312 270.839844 321.097656 C 270.59375 320.496094 270.304688 319.914062 269.980469 319.351562 L 258.898438 300.128906 C 261.273438 298.316406 263.574219 296.414062 265.804688 294.421875 C 268.039062 292.429688 270.191406 290.359375 272.261719 288.203125 C 274.335938 286.050781 276.324219 283.820312 278.230469 281.515625 C 280.132812 279.210938 281.945312 276.835938 283.667969 274.390625 C 285.394531 271.945312 287.019531 269.441406 288.554688 266.875 C 290.085938 264.304688 291.519531 261.683594 292.855469 259.007812 C 294.1875 256.332031 295.417969 253.605469 296.546875 250.835938 C 297.671875 248.066406 298.691406 245.257812 299.605469 242.410156 C 300.519531 239.5625 301.320312 236.683594 302.015625 233.773438 C 302.710938 230.863281 303.292969 227.933594 303.765625 224.980469 C 304.238281 222.023438 304.597656 219.058594 304.84375 216.078125 C 305.089844 213.097656 305.222656 210.109375 305.242188 207.117188 C 305.261719 204.128906 305.167969 201.140625 304.957031 198.15625 C 304.75 195.171875 304.429688 192.199219 303.996094 189.242188 C 303.5625 186.28125 303.019531 183.34375 302.363281 180.425781 C 301.703125 177.507812 300.9375 174.617188 300.0625 171.757812 C 299.183594 168.898438 298.203125 166.078125 297.109375 163.292969 C 296.019531 160.507812 294.824219 157.769531 293.527344 155.074219 C 292.226562 152.382812 290.828125 149.742188 289.328125 147.152344 C 287.828125 144.566406 286.234375 142.039062 284.542969 139.574219 C 282.847656 137.109375 281.066406 134.710938 279.191406 132.378906 C 277.320312 130.050781 275.359375 127.792969 273.3125 125.613281 C 271.269531 123.433594 269.144531 121.332031 266.9375 119.3125 C 264.734375 117.292969 262.457031 115.359375 260.105469 113.515625 C 257.75 111.667969 255.332031 109.914062 252.847656 108.253906 C 250.363281 106.59375 247.820312 105.027344 245.214844 103.558594 C 242.609375 102.089844 239.957031 100.726562 237.246094 99.457031 C 234.539062 98.191406 231.789062 97.03125 228.992188 95.976562 C 226.195312 94.917969 223.363281 93.96875 220.496094 93.128906 C 217.628906 92.289062 214.730469 91.558594 211.808594 90.9375 C 208.882812 90.316406 205.941406 89.808594 202.976562 89.414062 C 200.015625 89.015625 197.042969 88.734375 194.058594 88.5625 L 194.058594 67.621094 L 197.332031 67.621094 C 198.425781 67.585938 199.507812 67.445312 200.574219 67.203125 C 201.640625 66.957031 202.671875 66.613281 203.671875 66.167969 C 204.671875 65.726562 205.621094 65.191406 206.515625 64.5625 C 207.414062 63.9375 208.242188 63.230469 209.003906 62.441406 C 209.761719 61.65625 210.441406 60.804688 211.035156 59.886719 C 211.632812 58.96875 212.132812 58 212.542969 56.984375 C 212.953125 55.96875 213.261719 54.925781 213.46875 53.851562 C 213.675781 52.777344 213.78125 51.691406 213.777344 50.597656 C 213.777344 49.5 213.671875 48.417969 213.460938 47.34375 C 213.25 46.269531 212.9375 45.226562 212.523438 44.210938 C 212.113281 43.195312 211.605469 42.230469 211.007812 41.316406 C 210.410156 40.398438 209.730469 39.546875 208.96875 38.761719 C 208.207031 37.980469 207.375 37.273438 206.476562 36.648438 C 205.578125 36.027344 204.628906 35.492188 203.628906 35.050781 C 202.625 34.609375 201.59375 34.269531 200.523438 34.027344 C 199.457031 33.789062 198.378906 33.652344 197.285156 33.617188 L 177.636719 33.617188 C 176.542969 33.652344 175.464844 33.792969 174.398438 34.035156 C 173.332031 34.277344 172.296875 34.617188 171.296875 35.0625 C 170.296875 35.503906 169.347656 36.039062 168.449219 36.664062 C 167.550781 37.289062 166.722656 37.996094 165.960938 38.78125 C 165.199219 39.566406 164.519531 40.417969 163.925781 41.335938 C 163.328125 42.253906 162.824219 43.21875 162.414062 44.234375 C 162 45.246094 161.691406 46.292969 161.484375 47.367188 C 161.273438 48.441406 161.167969 49.527344 161.167969 50.621094 C 161.167969 51.714844 161.273438 52.800781 161.484375 53.875 C 161.691406 54.949219 162 55.992188 162.414062 57.007812 C 162.824219 58.023438 163.328125 58.988281 163.925781 59.90625 C 164.519531 60.820312 165.199219 61.671875 165.960938 62.460938 C 166.722656 63.246094 167.550781 63.949219 168.449219 64.578125 C 169.347656 65.203125 170.296875 65.738281 171.296875 66.179688 C 172.296875 66.621094 173.332031 66.964844 174.398438 67.207031 C 175.464844 67.449219 176.542969 67.585938 177.636719 67.621094 Z M 119.542969 327.675781 C 119.421875 327.878906 119.269531 328.054688 119.078125 328.199219 C 118.890625 328.339844 118.679688 328.445312 118.449219 328.503906 C 118.21875 328.566406 117.988281 328.582031 117.753906 328.550781 C 117.515625 328.523438 117.296875 328.449219 117.089844 328.332031 C 116.664062 328.085938 116.390625 327.726562 116.269531 327.25 C 116.132812 326.78125 116.191406 326.339844 116.449219 325.921875 L 127.058594 307.519531 L 130.121094 309.308594 Z M 258.71875 327.25 C 258.59375 327.734375 258.316406 328.101562 257.882812 328.347656 C 257.675781 328.460938 257.457031 328.53125 257.226562 328.5625 C 256.992188 328.589844 256.765625 328.574219 256.539062 328.511719 C 256.3125 328.449219 256.105469 328.351562 255.917969 328.207031 C 255.730469 328.066406 255.578125 327.894531 255.457031 327.691406 L 244.847656 309.289062 C 245.878906 308.699219 246.910156 308.109375 247.925781 307.503906 L 258.554688 325.921875 C 258.796875 326.339844 258.855469 326.78125 258.734375 327.25 Z M 292.214844 206.300781 C 292.21875 208.019531 292.179688 209.734375 292.097656 211.449219 C 292.015625 213.164062 291.890625 214.875 291.722656 216.585938 C 291.558594 218.292969 291.351562 219.996094 291.101562 221.695312 C 290.847656 223.394531 290.558594 225.085938 290.226562 226.769531 C 289.890625 228.453125 289.519531 230.128906 289.101562 231.792969 C 288.6875 233.460938 288.230469 235.117188 287.734375 236.757812 C 287.238281 238.402344 286.699219 240.03125 286.125 241.648438 C 285.546875 243.265625 284.929688 244.867188 284.273438 246.453125 C 283.621094 248.042969 282.925781 249.609375 282.191406 251.164062 C 281.460938 252.714844 280.691406 254.25 279.882812 255.765625 C 279.074219 257.277344 278.230469 258.773438 277.347656 260.246094 C 276.464844 261.71875 275.550781 263.167969 274.597656 264.597656 C 273.644531 266.023438 272.65625 267.429688 271.636719 268.808594 C 270.613281 270.1875 269.558594 271.539062 268.472656 272.867188 C 267.382812 274.195312 266.261719 275.496094 265.109375 276.765625 C 263.957031 278.039062 262.777344 279.28125 261.5625 280.496094 C 260.351562 281.710938 259.109375 282.894531 257.835938 284.046875 C 256.566406 285.199219 255.265625 286.320312 253.941406 287.410156 C 252.613281 288.5 251.261719 289.554688 249.882812 290.578125 C 248.503906 291.597656 247.101562 292.585938 245.675781 293.539062 C 244.25 294.496094 242.800781 295.410156 241.328125 296.292969 C 239.855469 297.175781 238.363281 298.023438 236.851562 298.832031 C 235.335938 299.640625 233.804688 300.410156 232.253906 301.144531 C 230.703125 301.875 229.132812 302.570312 227.550781 303.226562 C 225.964844 303.882812 224.363281 304.5 222.746094 305.078125 C 221.132812 305.652344 219.503906 306.191406 217.859375 306.6875 C 216.21875 307.1875 214.566406 307.640625 212.902344 308.058594 C 211.238281 308.472656 209.5625 308.847656 207.878906 309.179688 C 206.199219 309.515625 204.507812 309.804688 202.808594 310.058594 C 201.113281 310.308594 199.410156 310.515625 197.703125 310.683594 C 195.996094 310.847656 194.285156 310.972656 192.570312 311.054688 C 190.859375 311.136719 189.144531 311.175781 187.429688 311.175781 C 179.558594 311.183594 171.789062 310.304688 164.121094 308.542969 C 156.453125 306.777344 149.082031 304.167969 142.007812 300.71875 C 137.296875 298.449219 132.78125 295.832031 128.46875 292.871094 C 126.609375 291.605469 124.792969 290.28125 123.019531 288.898438 C 121.25 287.519531 119.523438 286.082031 117.839844 284.585938 C 116.160156 283.09375 114.53125 281.546875 112.949219 279.949219 C 111.367188 278.351562 109.839844 276.703125 108.363281 275.007812 C 106.886719 273.3125 105.46875 271.566406 104.105469 269.78125 C 102.742188 267.992188 101.4375 266.160156 100.191406 264.289062 C 98.945312 262.417969 97.761719 260.507812 96.640625 258.558594 C 95.515625 256.609375 94.457031 254.628906 93.460938 252.613281 C 92.464844 250.59375 91.535156 248.550781 90.671875 246.472656 C 89.808594 244.394531 89.011719 242.292969 88.285156 240.167969 C 87.554688 238.039062 86.894531 235.890625 86.304688 233.71875 C 85.714844 231.550781 85.195312 229.363281 84.746094 227.160156 C 84.292969 224.957031 83.917969 222.738281 83.609375 220.511719 C 83.300781 218.285156 83.066406 216.046875 82.902344 213.804688 C 82.738281 211.5625 82.644531 209.316406 82.625 207.066406 C 82.609375 204.816406 82.660156 202.570312 82.785156 200.324219 C 82.910156 198.078125 83.109375 195.839844 83.375 193.605469 C 83.644531 191.375 83.984375 189.152344 84.398438 186.941406 C 84.808594 184.730469 85.292969 182.535156 85.84375 180.351562 C 86.398438 178.171875 87.019531 176.011719 87.714844 173.875 C 88.40625 171.734375 89.164062 169.617188 89.992188 167.527344 C 90.820312 165.4375 91.714844 163.375 92.675781 161.339844 C 93.636719 159.308594 94.660156 157.304688 95.75 155.339844 C 96.839844 153.371094 97.988281 151.441406 99.203125 149.546875 C 100.417969 147.65625 101.6875 145.800781 103.019531 143.992188 C 104.351562 142.179688 105.742188 140.414062 107.1875 138.691406 C 108.632812 136.96875 110.132812 135.296875 111.6875 133.671875 C 113.242188 132.042969 114.84375 130.472656 116.5 128.949219 C 118.152344 127.425781 119.855469 125.960938 121.605469 124.546875 C 123.351562 123.132812 125.144531 121.78125 126.980469 120.484375 C 128.816406 119.1875 130.695312 117.949219 132.609375 116.773438 C 134.523438 115.597656 136.476562 114.484375 138.460938 113.433594 C 140.449219 112.382812 142.46875 111.394531 144.519531 110.476562 C 146.570312 109.554688 148.648438 108.699219 150.753906 107.914062 C 152.859375 107.128906 154.988281 106.410156 157.136719 105.757812 C 159.289062 105.109375 161.460938 104.53125 163.648438 104.019531 C 165.835938 103.507812 168.039062 103.070312 170.257812 102.703125 C 172.472656 102.332031 174.699219 102.039062 176.9375 101.8125 C 179.171875 101.585938 181.414062 101.433594 183.660156 101.355469 C 185.90625 101.273438 188.152344 101.265625 190.398438 101.328125 C 192.644531 101.394531 194.886719 101.53125 197.125 101.738281 C 199.363281 101.949219 201.589844 102.226562 203.8125 102.578125 C 206.03125 102.929688 208.238281 103.355469 210.429688 103.847656 C 212.621094 104.34375 214.796875 104.90625 216.953125 105.539062 C 219.109375 106.175781 221.242188 106.878906 223.351562 107.648438 C 225.464844 108.421875 227.546875 109.257812 229.605469 110.164062 C 231.664062 111.070312 233.6875 112.042969 235.683594 113.078125 C 237.675781 114.113281 239.636719 115.210938 241.5625 116.375 C 243.484375 117.535156 245.371094 118.761719 247.214844 120.042969 C 249.0625 121.328125 250.863281 122.667969 252.621094 124.070312 C 254.382812 125.46875 256.09375 126.921875 257.757812 128.433594 C 259.425781 129.941406 261.039062 131.503906 262.605469 133.117188 C 264.171875 134.734375 265.683594 136.394531 267.140625 138.105469 C 268.597656 139.816406 270 141.574219 271.347656 143.375 C 272.691406 145.175781 273.976562 147.019531 275.207031 148.90625 C 276.433594 150.789062 277.597656 152.710938 278.699219 154.671875 C 279.804688 156.628906 280.84375 158.621094 281.820312 160.648438 C 282.792969 162.675781 283.703125 164.730469 284.546875 166.816406 C 285.390625 168.902344 286.164062 171.011719 286.871094 173.144531 C 287.578125 175.28125 288.21875 177.4375 288.785156 179.613281 C 289.355469 181.789062 289.855469 183.980469 290.28125 186.1875 C 290.710938 188.394531 291.066406 190.617188 291.351562 192.847656 C 291.636719 195.078125 291.851562 197.316406 291.992188 199.558594 C 292.132812 201.804688 292.203125 204.050781 292.199219 206.300781 Z M 177.71875 46.726562 L 197.367188 46.726562 C 197.859375 46.761719 198.332031 46.882812 198.777344 47.09375 C 199.226562 47.304688 199.617188 47.589844 199.957031 47.953125 C 200.296875 48.316406 200.554688 48.726562 200.738281 49.1875 C 200.921875 49.648438 201.011719 50.125 201.011719 50.621094 C 201.011719 51.117188 200.921875 51.59375 200.738281 52.054688 C 200.554688 52.515625 200.296875 52.925781 199.957031 53.285156 C 199.617188 53.648438 199.226562 53.933594 198.777344 54.144531 C 198.332031 54.359375 197.859375 54.480469 197.367188 54.511719 L 177.71875 54.511719 C 177.226562 54.480469 176.753906 54.359375 176.308594 54.144531 C 175.859375 53.933594 175.464844 53.648438 175.128906 53.285156 C 174.789062 52.925781 174.527344 52.515625 174.347656 52.054688 C 174.164062 51.59375 174.074219 51.117188 174.074219 50.621094 C 174.074219 50.125 174.164062 49.648438 174.347656 49.1875 C 174.527344 48.726562 174.789062 48.316406 175.128906 47.953125 C 175.464844 47.589844 175.859375 47.304688 176.308594 47.09375 C 176.753906 46.882812 177.226562 46.761719 177.71875 46.726562 Z M 177.71875 46.726562 " fill-opacity="1" fill-rule="nonzero"/></g><path fill="#15253d" d="M 311.226562 138.738281 C 312.160156 137.800781 313.046875 136.820312 313.882812 135.796875 C 314.71875 134.773438 315.503906 133.710938 316.238281 132.609375 C 316.972656 131.507812 317.648438 130.375 318.273438 129.207031 C 318.894531 128.039062 319.457031 126.84375 319.960938 125.621094 C 320.46875 124.398438 320.910156 123.15625 321.292969 121.890625 C 321.675781 120.621094 321.996094 119.339844 322.253906 118.042969 C 322.511719 116.746094 322.707031 115.4375 322.835938 114.121094 C 322.964844 112.804688 323.03125 111.484375 323.03125 110.160156 C 323.03125 108.835938 322.964844 107.515625 322.835938 106.199219 C 322.707031 104.882812 322.511719 103.578125 322.253906 102.277344 C 321.996094 100.980469 321.675781 99.699219 321.292969 98.433594 C 320.910156 97.167969 320.46875 95.921875 319.960938 94.699219 C 319.457031 93.476562 318.894531 92.28125 318.273438 91.113281 C 317.648438 89.945312 316.972656 88.8125 316.238281 87.710938 C 315.503906 86.609375 314.71875 85.546875 313.882812 84.523438 C 313.046875 83.5 312.160156 82.519531 311.226562 81.582031 L 299.585938 69.929688 C 298.648438 68.996094 297.667969 68.109375 296.648438 67.273438 C 295.625 66.433594 294.5625 65.648438 293.460938 64.914062 C 292.363281 64.179688 291.230469 63.5 290.0625 62.875 C 288.894531 62.253906 287.703125 61.6875 286.480469 61.183594 C 285.257812 60.675781 284.015625 60.234375 282.75 59.847656 C 281.484375 59.464844 280.203125 59.144531 278.90625 58.886719 C 277.609375 58.628906 276.300781 58.4375 274.988281 58.304688 C 273.671875 58.175781 272.351562 58.113281 271.03125 58.113281 C 269.707031 58.113281 268.386719 58.175781 267.074219 58.304688 C 265.757812 58.4375 264.449219 58.628906 263.152344 58.886719 C 261.855469 59.144531 260.574219 59.464844 259.308594 59.847656 C 258.042969 60.234375 256.800781 60.675781 255.578125 61.183594 C 254.359375 61.6875 253.164062 62.253906 251.996094 62.875 C 250.832031 63.5 249.695312 64.179688 248.597656 64.914062 C 247.496094 65.648438 246.4375 66.433594 245.414062 67.273438 C 244.390625 68.109375 243.410156 68.996094 242.476562 69.929688 L 237.839844 74.585938 L 306.609375 143.410156 Z M 256.933594 75.125 C 258.230469 74.347656 259.582031 73.679688 260.988281 73.121094 C 262.394531 72.566406 263.839844 72.132812 265.320312 71.816406 C 266.800781 71.5 268.296875 71.308594 269.804688 71.242188 C 271.316406 71.175781 272.824219 71.234375 274.328125 71.417969 C 275.828125 71.601562 277.304688 71.90625 278.753906 72.335938 C 280.207031 72.765625 281.613281 73.3125 282.972656 73.972656 C 284.332031 74.636719 285.628906 75.40625 286.863281 76.285156 C 288.09375 77.164062 289.246094 78.136719 290.316406 79.207031 L 301.957031 90.839844 C 303.027344 91.914062 304 93.066406 304.878906 94.300781 C 305.753906 95.535156 306.523438 96.835938 307.1875 98.195312 C 307.847656 99.558594 308.394531 100.964844 308.820312 102.417969 C 309.25 103.871094 309.554688 105.351562 309.738281 106.855469 C 309.921875 108.355469 309.980469 109.867188 309.914062 111.378906 C 309.847656 112.890625 309.65625 114.390625 309.339844 115.871094 C 309.027344 117.351562 308.589844 118.796875 308.035156 120.207031 C 307.480469 121.617188 306.816406 122.972656 306.035156 124.269531 Z M 256.933594 75.125 " fill-opacity="1" fill-rule="nonzero"/><path fill="#15253d" d="M 68.410156 143.410156 L 137.097656 74.585938 L 132.464844 69.949219 C 131.527344 69.011719 130.546875 68.125 129.523438 67.289062 C 128.503906 66.449219 127.441406 65.664062 126.339844 64.929688 C 125.242188 64.195312 124.109375 63.515625 122.941406 62.894531 C 121.773438 62.269531 120.582031 61.707031 119.359375 61.199219 C 118.136719 60.695312 116.894531 60.25 115.628906 59.867188 C 114.363281 59.480469 113.082031 59.160156 111.785156 58.902344 C 110.488281 58.644531 109.179688 58.453125 107.863281 58.324219 C 106.550781 58.191406 105.230469 58.128906 103.90625 58.128906 C 102.585938 58.128906 101.265625 58.191406 99.949219 58.324219 C 98.636719 58.453125 97.328125 58.644531 96.03125 58.902344 C 94.734375 59.160156 93.453125 59.480469 92.1875 59.867188 C 90.921875 60.25 89.679688 60.695312 88.457031 61.199219 C 87.234375 61.707031 86.042969 62.269531 84.875 62.894531 C 83.707031 63.515625 82.574219 64.195312 81.476562 64.929688 C 80.375 65.664062 79.3125 66.449219 78.292969 67.289062 C 77.269531 68.125 76.289062 69.011719 75.351562 69.949219 L 63.777344 81.582031 C 62.84375 82.519531 61.957031 83.5 61.121094 84.523438 C 60.285156 85.546875 59.5 86.609375 58.765625 87.710938 C 58.03125 88.8125 57.355469 89.945312 56.730469 91.113281 C 56.109375 92.28125 55.546875 93.476562 55.042969 94.699219 C 54.535156 95.921875 54.09375 97.167969 53.707031 98.433594 C 53.324219 99.699219 53.003906 100.980469 52.75 102.277344 C 52.492188 103.578125 52.296875 104.882812 52.167969 106.199219 C 52.039062 107.519531 51.972656 108.835938 51.972656 110.160156 C 51.972656 111.484375 52.039062 112.804688 52.167969 114.121094 C 52.296875 115.4375 52.492188 116.746094 52.75 118.042969 C 53.003906 119.339844 53.324219 120.621094 53.707031 121.890625 C 54.09375 123.15625 54.535156 124.398438 55.042969 125.621094 C 55.546875 126.84375 56.109375 128.039062 56.730469 129.207031 C 57.355469 130.375 58.03125 131.507812 58.765625 132.609375 C 59.5 133.710938 60.285156 134.773438 61.121094 135.796875 C 61.957031 136.820312 62.84375 137.800781 63.777344 138.738281 Z M 73.042969 90.875 L 84.703125 79.207031 C 85.773438 78.136719 86.925781 77.160156 88.15625 76.28125 C 89.390625 75.402344 90.683594 74.632812 92.046875 73.96875 C 93.40625 73.308594 94.8125 72.761719 96.261719 72.332031 C 97.714844 71.902344 99.191406 71.597656 100.691406 71.414062 C 102.195312 71.230469 103.703125 71.171875 105.214844 71.238281 C 106.726562 71.304688 108.222656 71.496094 109.699219 71.8125 C 111.179688 72.128906 112.625 72.566406 114.03125 73.121094 C 115.4375 73.675781 116.789062 74.34375 118.085938 75.125 L 68.96875 124.285156 C 68.1875 122.988281 67.519531 121.632812 66.960938 120.222656 C 66.40625 118.8125 65.96875 117.367188 65.652344 115.882812 C 65.339844 114.402344 65.144531 112.902344 65.078125 111.390625 C 65.011719 109.875 65.070312 108.367188 65.253906 106.859375 C 65.4375 105.355469 65.742188 103.878906 66.171875 102.421875 C 66.601562 100.96875 67.148438 99.5625 67.808594 98.199219 C 68.472656 96.835938 69.242188 95.535156 70.121094 94.300781 C 71 93.066406 71.972656 91.914062 73.042969 90.839844 Z M 73.042969 90.875 " fill-opacity="1" fill-rule="nonzero"/></svg>